<?xml version="1.0" encoding="UTF-8" standalone="no"?>
<!-- Created with Inkscape (http://www.inkscape.org/) -->

<svg
   version="1.1"
   id="svg2"
   width="340.74667"
   height="56.933334"
   viewBox="0 0 340.74667 56.933334"
   sodipodi:docname="m24-mcscert_left-col_eps1.eps"
   xmlns:inkscape="http://www.inkscape.org/namespaces/inkscape"
   xmlns:sodipodi="http://sodipodi.sourceforge.net/DTD/sodipodi-0.dtd"
   xmlns="http://www.w3.org/2000/svg"
   xmlns:svg="http://www.w3.org/2000/svg">
  <defs
     id="defs6">
    <clipPath
       clipPathUnits="userSpaceOnUse"
       id="clipPath18">
      <path
         d="M 0,404.926 H 756.41 V 5.48047 H 0 Z"
         id="path16" />
    </clipPath>
  </defs>
  <sodipodi:namedview
     id="namedview4"
     pagecolor="#ffffff"
     bordercolor="#000000"
     borderopacity="0.25"
     inkscape:showpageshadow="2"
     inkscape:pageopacity="0.0"
     inkscape:pagecheckerboard="0"
     inkscape:deskcolor="#d1d1d1" />
  <g
     id="g8"
     inkscape:groupmode="layer"
     inkscape:label="ink_ext_XXXXXX"
     transform="matrix(1.3333333,0,0,-1.3333333,0,56.933333)">
    <g
       id="g10"
       transform="scale(0.1)">
      <g
         id="g12">
        <g
           id="g14"
           clip-path="url(#clipPath18)">
          <path
             d="m 144.367,281.469 c -1.422,1.347 -3.808,1.301 -5.387,1.269 l -0.578,-0.008 c -2.398,0 -4.672,0.165 -6.175,2.184 -1.817,2.371 -1.789,9.84 -1.782,13.024 l 0.004,0.726 v 82.813 c 0,0.687 -0.027,1.519 -0.051,2.406 -0.109,3.558 -0.285,9.519 1.293,11.574 0.981,1.348 3.598,1.246 5.704,1.164 0.488,-0.019 0.949,-0.039 1.375,-0.039 5.175,0 5.734,3.234 5.734,4.621 0,1.231 -0.371,2.18 -1.098,2.824 -1.222,1.086 -3.008,0.938 -4.445,0.813 -0.41,-0.031 -0.797,-0.067 -1.113,-0.067 h -20.586 c -2.129,0 -4.782,0 -6.211,-3.535 L 74.2148,309.301 c -5.9335,16.152 -32.496,88.535 -32.4843,88.5 -0.1602,0.492 -0.3008,0.976 -0.4414,1.441 -0.8086,2.723 -1.6446,5.531 -5.5977,5.531 H 14.2422 c -0.3242,0 -0.7109,0.036 -1.1172,0.067 -1.4375,0.125 -3.22656,0.273 -4.44922,-0.813 -0.72656,-0.644 -1.09375,-1.593 -1.09375,-2.824 0,-1.387 0.5586,-4.621 5.73437,-4.621 4.1719,0 6.8008,-0.219 7.8789,-1.332 1.1524,-1.195 1.1836,-3.895 0.8125,-9.141 L 16.2734,297.074 C 15.6914,286.414 15.0352,282.73 6.10156,282.73 0.789063,282.73 0,280.293 0,278.84 c 0,-1.684 0.734375,-3.688 4.25,-3.688 2.69922,0 5.48438,0.168 8.1758,0.336 2.7187,0.168 5.5273,0.34 8.289,0.34 2.7305,0 5.5313,-0.172 8.2383,-0.336 2.7461,-0.168 5.586,-0.34 8.4024,-0.34 1.6054,0 5.3633,0 5.3633,3.688 0,0.996 -0.3555,1.863 -1.0235,2.504 -1.4687,1.414 -3.9883,1.398 -5.6562,1.386 h -0.3477 c -3.6875,0 -6.332,0.872 -8.082,2.661 -3.4571,3.547 -3.3438,10.492 -2.8321,19.199 l 5.1563,79.43 c 5.875,-16.493 35.418,-99.418 35.3867,-99.325 l 0.043,-0.164 c 0.418,-1.648 1.1914,-4.711 3.9844,-4.711 2.3711,0 3.2148,2.375 3.7773,3.95 l 0.2109,0.578 39.8481,101.879 v -87.563 l 0.004,-1.094 c 0.027,-3.5 0.078,-10.019 -2.379,-12.285 -1.743,-1.601 -5.336,-2.555 -7.801,-2.555 l -0.574,0.008 c -1.582,0.032 -3.9692,0.078 -5.3949,-1.269 -0.7032,-0.668 -1.0586,-1.555 -1.0586,-2.629 0,-1.684 0.8359,-3.688 4.8085,-3.688 3.609,0 7.328,0.168 10.922,0.336 3.641,0.168 7.41,0.34 11.125,0.34 2.937,0 5.937,-0.172 8.836,-0.336 2.926,-0.168 5.953,-0.34 8.945,-0.34 3.977,0 4.813,2.004 4.813,3.688 0,1.074 -0.36,1.961 -1.063,2.629"
             style="fill:#46505c;fill-opacity:1;fill-rule:nonzero;stroke:none"
             id="path20" />
          <path
             d="m 223.199,343.082 c -3.164,0 -5.297,3.652 -7.996,8.277 -3.836,6.567 -8.609,14.739 -17.555,14.739 -6.726,0 -14.296,-4.137 -18.816,-8.239 -8.535,-7.961 -13.637,-20.293 -13.637,-32.98 0,-20.121 13.453,-41.848 35.184,-41.848 8.504,0 15.934,3.047 21.484,8.809 l 0.36,0.414 c 1.156,1.367 2.218,2.492 3.511,2.492 1.469,0 2.661,-1.308 2.661,-2.922 0,-1.156 -0.649,-3.285 -6.254,-8.437 -8.043,-6.989 -18.125,-10.664 -29.172,-10.664 -24.313,0 -44.848,21.968 -44.848,47.972 0,28.008 23.754,51.672 51.867,51.672 7.258,0 18.106,-2.238 24.778,-7.16 2.566,-1.906 2.336,-5.516 2.152,-8.418 -0.043,-0.652 -0.082,-1.266 -0.082,-1.781 0,-0.211 0.027,-0.617 0.055,-1.09 0.238,-3.813 0.343,-8.031 -1.473,-9.898 -0.594,-0.614 -1.359,-0.938 -2.219,-0.938"
             style="fill:#46505c;fill-opacity:1;fill-rule:nonzero;stroke:none"
             id="path22" />
          <path
             d="m 376.648,281.469 c -1.421,1.347 -3.808,1.301 -5.386,1.269 l -0.578,-0.008 c -2.399,0 -4.672,0.165 -6.176,2.184 -1.817,2.371 -1.789,9.84 -1.781,13.024 l 0.003,0.726 v 82.813 c 0,0.687 -0.027,1.519 -0.05,2.406 -0.106,3.558 -0.282,9.519 1.293,11.574 0.98,1.348 3.601,1.246 5.703,1.164 0.492,-0.019 0.949,-0.039 1.379,-0.039 5.172,0 5.73,3.234 5.73,4.621 0,1.231 -0.367,2.18 -1.097,2.824 -1.219,1.086 -3.008,0.938 -4.446,0.813 -0.41,-0.031 -0.797,-0.067 -1.113,-0.067 h -20.582 c -2.133,0 -4.781,0 -6.215,-3.535 l -36.84,-91.937 c -5.926,16.152 -32.492,88.535 -32.476,88.5 -0.164,0.492 -0.305,0.976 -0.446,1.441 -0.804,2.723 -1.64,5.531 -5.597,5.531 H 246.52 c -0.317,0 -0.704,0.036 -1.114,0.067 -1.437,0.125 -3.226,0.273 -4.449,-0.813 -0.727,-0.644 -1.094,-1.593 -1.094,-2.824 0,-1.387 0.559,-4.621 5.735,-4.621 4.175,0 6.804,-0.219 7.879,-1.332 1.156,-1.195 1.183,-3.895 0.816,-9.141 l -5.734,-89.035 c -0.582,-10.66 -1.243,-14.344 -10.176,-14.344 -5.309,0 -6.102,-2.437 -6.102,-3.89 0,-1.684 0.739,-3.688 4.25,-3.688 2.703,0 5.485,0.168 8.176,0.336 2.719,0.168 5.527,0.34 8.285,0.34 2.735,0 5.535,-0.172 8.242,-0.336 2.746,-0.168 5.586,-0.34 8.403,-0.34 1.605,0 5.363,0 5.363,3.688 0,0.996 -0.352,1.863 -1.023,2.504 -1.469,1.414 -3.989,1.398 -5.657,1.386 h -0.347 c -3.688,0 -6.332,0.872 -8.082,2.661 -3.457,3.547 -3.34,10.492 -2.832,19.199 l 5.156,79.43 c 5.879,-16.493 35.418,-99.418 35.387,-99.325 l 0.043,-0.164 c 0.418,-1.648 1.195,-4.711 3.988,-4.711 2.367,0 3.215,2.375 3.773,3.95 l 0.211,0.578 39.848,101.879 v -87.563 l 0.004,-1.094 c 0.027,-3.5 0.082,-10.019 -2.375,-12.285 -1.746,-1.601 -5.34,-2.555 -7.805,-2.555 l -0.578,0.008 c -1.578,0.032 -3.965,0.078 -5.387,-1.269 -0.707,-0.668 -1.058,-1.555 -1.058,-2.629 0,-1.684 0.832,-3.688 4.804,-3.688 3.614,0 7.325,0.168 10.922,0.336 3.641,0.168 7.414,0.34 11.125,0.34 2.938,0 5.938,-0.172 8.836,-0.336 2.93,-0.168 5.953,-0.34 8.949,-0.34 3.973,0 4.809,2.004 4.809,3.688 0,1.074 -0.359,1.961 -1.063,2.629"
             style="fill:#46505c;fill-opacity:1;fill-rule:nonzero;stroke:none"
             id="path24" />
        </g>
      </g>
      <path
         d="m 428.781,328.383 c 6.571,3.305 6.571,3.305 6.571,10.609 v 9.211 c 0,10.942 -0.762,17.586 -11.293,17.586 -10.141,0 -16.344,-4.871 -21.399,-16.809 l -0.418,-0.964 c -1.195,-2.801 -2.433,-5.696 -5.644,-7.219 -1.993,-1.078 -6.239,-2.848 -8.875,-2.848 -2.563,0 -3.805,1.231 -3.805,3.762 0,5.906 4.59,12.187 8.52,15.773 9.496,9.153 23.281,14.852 35.953,14.852 8.488,0 14.781,-1.984 18.718,-5.887 4.461,-3.992 4.371,-9.105 4.282,-14.051 l -0.02,-2.101 v -49.402 -0.364 c -0.012,-3.363 -0.019,-11.238 2.93,-14.09 0.719,-0.699 1.57,-1.039 2.597,-1.039 2.493,0 4.204,1.77 5.571,3.184 1.07,1.102 1.992,2.051 3.203,2.051 1.476,0 2.668,-1.317 2.668,-2.926 0,-2.75 -3.199,-5.66 -4.91,-7.227 l -0.18,-0.16 c -4.02,-3.015 -9.23,-6.383 -14.73,-6.383 -7.079,0 -9.918,6.797 -11.79,11.297 -0.55,1.301 -1.289,3.082 -1.699,3.371 l 0.239,-0.058 0.289,0.047 c -0.348,-0.157 -1.528,-1.18 -2.579,-2.09 -5.171,-4.485 -15.921,-13.817 -29.355,-13.817 -9.461,0 -19.516,6.219 -19.516,17.743 0,15.035 16.996,23.882 28.239,29.738 l 1.277,0.664 z m -12.922,-13.926 c -7.621,-4.16 -14.671,-9.293 -14.671,-18.582 0,-8.191 6.605,-11.098 12.265,-11.098 6.164,0 12.637,2.977 17.317,7.961 4.39,4.875 4.582,8.078 4.582,14.856 v 12.562 c 0,0.145 0.007,0.336 0.027,0.606 0.172,3.179 -0.168,3.914 -0.328,4.086 l 0.219,-0.086 0.039,0.004 c -0.168,-0.028 -0.649,-0.262 -0.911,-0.387 -0.296,-0.145 -0.578,-0.281 -0.847,-0.375 l 0.187,0.078 -17.879,-9.625"
         style="fill:#46505c;fill-opacity:1;fill-rule:nonzero;stroke:none"
         id="path26" />
      <path
         d="m 474.73,301.969 0.032,0.301 c 0.199,1.761 0.597,5.425 3.777,5.425 3.473,0 4.27,-4.039 5.191,-8.715 1.668,-8.449 3.95,-20.019 20.461,-20.019 10.938,0 22.579,6.766 22.579,19.301 0,11.582 -9.258,15.863 -17.942,18.965 l -1.769,0.601 c -12.25,4.195 -29.028,9.938 -29.028,27 0,7.93 3.758,15.012 10.867,20.488 6.293,4.747 14.114,7.051 23.903,7.051 5.09,0 15.648,-1.375 20.629,-3.531 3.461,-1.758 3.199,-5.574 2.992,-8.637 -0.051,-0.699 -0.094,-1.359 -0.094,-1.945 0,-0.145 0.031,-0.539 0.07,-0.957 0.313,-3.734 0.512,-7.867 -1.218,-9.68 -0.551,-0.586 -1.282,-0.894 -2.078,-0.894 -2.454,0 -3.461,2.496 -4.75,5.66 -2.403,5.933 -5.68,14.058 -19.071,14.058 -6.832,0 -16.711,-5.082 -16.711,-14.273 0,-10.387 9.52,-13.871 20.539,-17.902 13.25,-4.844 28.262,-10.336 28.262,-29.711 0,-21.977 -22.43,-31.864 -38.351,-31.864 -6.68,0 -18.508,2.59 -25.5,6.446 -3.469,1.629 -3.43,4.683 -3.399,7.644 l 0.008,0.992 0.601,14.196"
         style="fill:#46505c;fill-opacity:1;fill-rule:nonzero;stroke:none"
         id="path28" />
      <path
         d="m 600.25,287.703 c 0,1.285 -1.141,2.727 -2.66,2.727 -0.981,0 -1.84,-0.739 -3.399,-2.071 -2.472,-2.105 -6.203,-5.293 -10.64,-5.293 -2.391,0 -4.27,0.707 -5.77,2.157 -4.453,4.308 -4.453,14.211 -4.441,20.761 v 0.438 53.219 c 0,2.058 0.359,2.828 0.672,3.113 0.488,0.449 1.679,0.398 3.187,0.324 0.621,-0.027 1.321,-0.058 2.063,-0.058 h 10.918 c 0.789,0 1.5,-0.036 2.121,-0.067 1.738,-0.086 3.109,-0.152 4.109,0.77 0.981,0.898 1.11,2.371 1.11,3.836 0,1.539 0,4.125 -3.051,4.125 l -19.207,-0.004 c -1.563,0.121 -1.922,0.25 -1.922,2.945 v 14.902 c 0,3.114 -1.551,3.77 -2.86,3.77 -1.902,0 -2.789,-1.91 -3.128,-2.645 -4.364,-9.8 -9.711,-14.816 -18.172,-20.714 l -0.442,-0.36 c -0.988,-0.785 -2.34,-1.855 -2.34,-3.668 0,-0.781 0.301,-1.469 0.883,-1.984 1.34,-1.199 3.739,-1.117 5.879,-0.946 0.238,0.02 0.481,0.04 0.578,0.04 0.453,0 0.871,0.007 1.242,0.015 0.809,0.02 1.821,0.039 2,-0.129 0.079,-0.078 0.34,-0.472 0.34,-2.422 v -54.062 l -0.019,-2.981 c -0.09,-8.132 -0.18,-17.351 4.551,-23.82 3.308,-4.34 8.937,-6.93 15.07,-6.93 6.828,0 13.566,2.907 19,8.188 1.18,0.934 4.328,4.019 4.328,6.824"
         style="fill:#46505c;fill-opacity:1;fill-rule:nonzero;stroke:none"
         id="path30" />
      <path
         d="m 681.859,298.063 c -1.211,0 -2.23,-0.981 -4.078,-2.758 -3.953,-3.801 -11.312,-10.875 -24.793,-10.875 -23.988,0 -36.539,21.422 -36.539,42.574 0,2.559 0.281,4.023 0.891,4.609 0.68,0.664 2.332,0.657 4.82,0.645 h 0.988 59.102 c 1.102,0 3.641,0.472 3.641,4.844 0,7.16 -2.981,16.332 -7.082,21.816 -6.508,8.551 -17.129,13.449 -29.129,13.449 -13.59,0 -26.039,-4.957 -36.008,-14.336 -9.891,-9.261 -14.301,-20.32 -14.301,-35.847 0,-27.75 20.039,-49.489 45.617,-49.489 12.801,0 22.582,3.727 31.723,12.09 l 0.129,0.129 c 5.449,5.008 7.871,8.156 7.871,10.219 0,1.644 -1.25,2.93 -2.852,2.93 m -59.179,54.636 c 5.601,8.391 14.679,13.399 24.261,13.399 4.84,0 11.539,-1.047 15.989,-6.02 2.89,-3.316 4.761,-7.828 4.761,-11.492 0,-3.879 -1.921,-6.078 -6.25,-7.129 -5.492,-1.418 -16.32,-1.625 -22.3,-1.625 h -15.789 c -0.301,0 -0.622,-0.012 -0.973,-0.019 -1.32,-0.047 -3.328,-0.114 -4.059,0.57 -0.14,0.125 -0.32,0.355 -0.32,0.906 0,2.875 2.84,9.016 4.68,11.41"
         style="fill:#46505c;fill-opacity:1;fill-rule:nonzero;stroke:none"
         id="path32" />
      <path
         d="m 744,371.336 c -10.398,0 -17.391,-9.223 -21.148,-14.172 -0.532,-0.707 -1.114,-1.465 -1.563,-2.004 -0.039,0.43 -0.051,1.055 0,1.977 0.012,0.234 0.012,0.418 0.012,0.566 v 10.281 l 0.008,0.301 c 0.011,1 0.019,2.367 -0.918,3.297 -0.371,0.359 -1.032,0.785 -2.129,0.785 -1.852,0 -3.032,-1.429 -3.903,-2.472 -0.199,-0.243 -0.39,-0.469 -0.629,-0.743 -3.07,-3.91 -11.25,-9.093 -15.589,-10.453 -0.243,-0.086 -0.512,-0.172 -0.789,-0.258 -1.704,-0.531 -4.551,-1.425 -4.551,-4.472 0,-1.778 1.429,-2.926 3.64,-2.926 h 2.528 c 2.281,0 4.051,-0.453 4.703,-1.262 1.656,-1.777 1.629,-9.367 1.617,-11.855 v -0.692 -39.328 c 0,-1.176 0.031,-2.316 0.063,-3.418 0.199,-7.898 -0.043,-11.726 -7.68,-12.488 -0.293,-0.027 -0.641,-0.047 -1,-0.062 -1.961,-0.098 -5.621,-0.278 -5.621,-4.141 0,-2.106 1.5,-3.363 4.019,-3.363 3.039,0 6.168,0.156 9.192,0.308 3.058,0.153 6.226,0.313 9.328,0.313 2.84,0 5.719,-0.149 8.789,-0.301 3.109,-0.16 6.32,-0.32 9.531,-0.32 2.238,0 3.629,1.371 3.629,3.578 0,3.515 -3.738,3.777 -5.75,3.918 -0.309,0.023 -0.609,0.043 -0.867,0.07 -7.641,0.762 -7.883,4.59 -7.672,12.488 0.02,1.102 0.051,2.242 0.051,3.418 v 33.051 0.984 c 0,7.754 -0.012,12.879 4.25,19.364 2.078,2.8 5.23,7.035 8.898,7.035 1.86,0 2.942,-1.223 4.539,-3.215 1.711,-2.121 3.832,-4.762 7.942,-4.762 5.582,0 9.48,3.965 9.48,9.649 0,6.457 -5.332,11.324 -12.41,11.324"
         style="fill:#46505c;fill-opacity:1;fill-rule:nonzero;stroke:none"
         id="path34" />
      <path
         d="m 65.4766,227.383 v 0.652 c 0.0078,2.723 0.0234,9.098 -1.1211,11.153 -1.0391,2.046 -3.1524,2.207 -5.8047,2.207 h -0.1953 c -0.9297,-0.004 -2.4844,-0.016 -3.4805,0.941 -0.3633,0.348 -0.793,0.969 -0.793,1.953 0,0.805 0.2852,1.508 0.8282,2.031 0.6679,0.645 1.6836,0.985 2.9414,0.985 1.7929,0 3.5937,-0.133 5.3359,-0.27 1.6875,-0.125 3.4375,-0.258 5.1289,-0.258 1.457,0 2.8945,0.129 4.4219,0.258 1.5156,0.137 3.082,0.27 4.6562,0.27 3.4063,0 3.7735,-2.024 3.7735,-2.895 0,-2 -1.6992,-3.015 -5.0547,-3.015 -4.3555,0 -4.5742,-2.09 -4.668,-7.247 -0.0117,-0.664 -0.0234,-1.347 -0.0547,-2.054 l 0.0039,-39.074 c 0,-7.77 0,-14.481 -6.8047,-20.864 -5.0859,-4.715 -12.5351,-7 -22.7851,-7 -5.5313,0 -15.8125,0.785 -22.4766,6.051 -7.3867,5.465 -7.3828,13.035 -7.375,21.051 v 0.762 39.378 l 0.0039,1.489 c 0.0196,3.34 0.0313,5.547 -0.9179,6.468 -0.7383,0.719 -2.38285,1.04 -5.32035,1.04 -2.80859,0 -4.23828,0.976 -4.23828,2.894 0,0.922 0.27734,1.656 0.82422,2.184 0.57812,0.562 1.39062,0.832 2.48437,0.832 2.25,0 4.46094,-0.133 6.59374,-0.266 2.1016,-0.125 4.2735,-0.262 6.4531,-0.262 2.1797,0 4.4102,0.137 6.5664,0.266 2.1915,0.129 4.4571,0.262 6.7071,0.262 2.0351,0 3.3047,-1.153 3.3047,-3.016 0,-1.918 -1.4649,-2.894 -4.3516,-2.894 -2.9375,0 -4.5781,-0.321 -5.3125,-1.04 -0.9492,-0.921 -0.9375,-3.128 -0.9219,-6.464 l 0.0039,-1.493 v -35.367 -1.238 c -0.0156,-5.352 -0.0429,-13.43 2.2735,-17.441 3.9179,-6.957 14.5195,-7.497 17.6758,-7.497 4.4687,0 12.7304,0.825 17.8476,6.348 3.8516,4.262 3.8477,9.395 3.8477,15.336 v 0.481 34.363"
         style="fill:#46505c;fill-opacity:1;fill-rule:nonzero;stroke:none"
         id="path36" />
      <path
         d="m 142.203,171.703 -0.5,0.043 c -4.043,0.402 -4.203,2.102 -4.078,6.949 0.016,0.664 0.031,1.348 0.031,2.063 v 19.828 l 0.004,1.008 c 0.012,5.828 0.024,11.855 -3.715,17.054 -3.484,4.793 -8.465,7.219 -14.804,7.219 -7.934,0 -13.606,-5.203 -16.996,-8.316 -0.25,-0.231 -0.52,-0.473 -0.786,-0.711 v 5.746 l 0.004,0.203 c 0.008,0.734 0.02,1.738 -0.711,2.453 -0.293,0.289 -0.8161,0.625 -1.6598,0.625 -1.375,0 -2.207,-1.008 -2.7578,-1.676 l -0.3867,-0.457 c -1.7188,-2.203 -6.5157,-5.277 -9.0313,-6.066 l -0.4492,-0.145 c -1.0781,-0.339 -3.0938,-0.976 -3.0938,-3.187 0,-1.367 1.0938,-2.285 2.7227,-2.285 h 1.5117 c 1.4141,0 2.1641,-0.297 2.3906,-0.578 0.3829,-0.418 0.8438,-1.926 0.8243,-6.746 v -0.414 -23.567 c 0,-0.715 0.0156,-1.398 0.0312,-2.058 0.125,-4.844 -0.0391,-6.54 -4.0742,-6.942 l -0.5703,-0.035 c -1.1602,-0.055 -3.8828,-0.188 -3.8828,-2.988 0,-1.168 0.7734,-2.532 2.957,-2.532 1.8437,0 3.7227,0.133 5.5391,0.262 1.8086,0.129 3.6796,0.266 5.4921,0.266 1.6563,0 3.3633,-0.125 5.1722,-0.254 1.871,-0.133 3.804,-0.274 5.754,-0.274 1.66,0 2.726,1.043 2.726,2.653 0,2.59 -2.765,2.781 -3.949,2.859 l -0.504,0.043 c -4.047,0.402 -4.207,2.098 -4.086,6.942 0.02,0.66 0.031,1.347 0.031,2.058 v 21.059 c 0,4.937 0.309,7.293 3.411,10.742 2.851,3.191 6.589,4.949 10.527,4.949 4.23,0 7.894,-1.875 9.812,-5.019 1.907,-3.086 1.907,-7.899 1.907,-11.766 v -19.953 c 0,-0.715 0.019,-1.399 0.035,-2.059 0.121,-4.851 -0.039,-6.551 -4.082,-6.953 l -0.571,-0.035 c -1.164,-0.055 -3.886,-0.188 -3.886,-2.988 0,-1.168 0.773,-2.532 2.961,-2.532 1.84,0 3.722,0.137 5.547,0.262 1.808,0.129 3.675,0.266 5.492,0.266 1.652,0 3.359,-0.125 5.168,-0.254 1.871,-0.133 3.804,-0.274 5.746,-0.274 1.66,0 2.726,1.043 2.726,2.653 0,2.59 -2.765,2.781 -3.949,2.859"
         style="fill:#46505c;fill-opacity:1;fill-rule:nonzero;stroke:none"
         id="path38" />
      <path
         d="m 159.277,241.504 c 0,4.23 2.887,7.547 6.571,7.547 3.894,0 6.218,-3.711 6.218,-7.297 0,-4.516 -2.593,-7.547 -6.453,-7.547 -3.668,0 -6.336,3.066 -6.336,7.297 m 11.715,-60.758 c 0,-0.715 -0.015,-1.398 -0.031,-2.058 -0.125,-4.844 0.039,-6.54 4.074,-6.946 l 0.504,-0.039 c 1.184,-0.078 3.949,-0.269 3.949,-2.855 0,-1.614 -1.066,-2.657 -2.726,-2.657 -1.942,0 -3.879,0.137 -5.746,0.274 -1.809,0.129 -3.512,0.254 -5.168,0.254 -1.817,0 -3.684,-0.137 -5.489,-0.266 -1.824,-0.129 -3.703,-0.262 -5.546,-0.262 -2.18,0 -2.958,1.364 -2.958,2.532 0,2.8 2.723,2.933 3.883,2.988 l 0.571,0.031 c 4.039,0.406 4.203,2.102 4.078,6.946 -0.02,0.66 -0.035,1.343 -0.035,2.058 v 23.567 0.414 c 0.019,4.82 -0.438,6.328 -0.825,6.746 -0.222,0.277 -0.972,0.578 -2.382,0.578 h -1.516 c -1.629,0 -2.727,0.918 -2.727,2.285 0,2.211 2.016,2.848 3.098,3.187 l 0.449,0.145 c 2.516,0.789 7.309,3.863 9.031,6.066 l 0.387,0.454 c 0.551,0.671 1.383,1.679 2.758,1.679 0.84,0 1.363,-0.336 1.656,-0.625 0.735,-0.715 0.723,-1.719 0.715,-2.453 l -0.004,-0.203 v -41.84"
         style="fill:#46505c;fill-opacity:1;fill-rule:nonzero;stroke:none"
         id="path40" />
      <path
         d="m 241.602,223.813 c -0.594,0.546 -1.325,0.511 -1.848,0.488 l -0.371,-0.012 h -17.121 c -0.766,0 -3.082,0 -3.082,-2.394 0,-2.641 3.371,-2.641 4.476,-2.641 0.758,0 3.223,-0.149 3.223,-2.113 0,-0.985 -0.66,-2.813 -1.102,-4.028 -0.129,-0.355 -0.25,-0.691 -0.347,-0.984 0.027,0.07 -9.004,-21.234 -12.434,-29.324 -3,7.941 -10.719,28.359 -10.723,28.371 l -0.16,0.406 c -0.523,1.356 -1.621,4.168 -1.621,5.434 0,1.769 1.879,2.238 2.988,2.238 l 0.372,-0.016 c 1.011,-0.05 2.543,-0.129 3.511,0.758 0.465,0.426 0.711,1 0.711,1.652 0,0.809 -0.246,1.454 -0.73,1.918 -0.77,0.739 -1.824,0.731 -2.602,0.723 h -0.211 -21.047 -0.218 c -0.641,0.008 -1.524,0.02 -2.192,-0.617 -0.437,-0.426 -0.66,-1.02 -0.66,-1.777 0,-1.75 1.188,-2.641 3.465,-2.637 3.703,-0.192 4.211,-1.567 5.719,-5.641 l 0.304,-0.824 16.899,-44 0.679,-1.574 c 0.356,-1.27 1.239,-2.082 2.297,-2.082 1.618,0 2.438,1.898 2.977,3.16 l 0.144,0.324 0.051,0.082 0.039,0.094 16.684,38.918 c 0.242,0.566 0.476,1.156 0.73,1.777 1.743,4.321 3.723,9.219 7.762,9.774 l 0.336,0.039 c 1.02,0.105 3.723,0.383 3.723,2.836 0,0.273 0,1.101 -0.621,1.672"
         style="fill:#46505c;fill-opacity:1;fill-rule:nonzero;stroke:none"
         id="path42" />
      <path
         d="m 292.617,181.34 c -0.957,0 -1.66,-0.684 -2.832,-1.813 -2.297,-2.226 -6.582,-6.371 -14.39,-6.371 -13.95,0 -21.247,12.594 -21.247,25.032 0,1.835 0.262,2.281 0.372,2.39 0.25,0.238 1.386,0.235 2.484,0.231 l 0.586,-0.004 h 35.262 c 0.636,0 2.722,0.25 2.722,3.402 0,4.383 -1.816,10.004 -4.328,13.375 -3.992,5.258 -10.488,8.27 -17.828,8.27 -8.258,0 -15.824,-3.02 -21.871,-8.731 -6.063,-5.66 -8.77,-12.394 -8.77,-21.828 0,-16.91 12.235,-30.156 27.844,-30.156 7.793,0 13.746,2.254 19.391,7.39 4.285,3.973 4.863,5.528 4.863,6.524 0,1.285 -0.988,2.289 -2.258,2.289 m -34.84,31.91 c 3.243,4.871 8.477,7.777 14.008,7.777 2.77,0 6.598,-0.593 9.11,-3.41 1.648,-1.898 2.714,-4.465 2.714,-6.543 0,-2.09 -0.957,-3.176 -3.32,-3.75 -3.211,-0.832 -9.621,-0.957 -13.156,-0.957 h -9.426 l -0.586,-0.012 c -0.437,-0.015 -1.773,-0.058 -2.023,0.188 l -0.02,0.16 c 0,1.602 1.652,5.168 2.699,6.547"
         style="fill:#46505c;fill-opacity:1;fill-rule:nonzero;stroke:none"
         id="path44" />
      <path
         d="m 334.219,225.148 c -6.414,0 -10.668,-5.519 -12.989,-8.578 v 6.039 l 0.004,0.204 c 0.008,0.722 0.02,1.714 -0.711,2.429 -0.296,0.285 -0.82,0.629 -1.664,0.629 -1.367,0 -2.199,-1.012 -2.754,-1.683 l -0.386,-0.454 c -1.719,-2.203 -6.516,-5.281 -9.031,-6.066 l -0.45,-0.145 c -1.082,-0.339 -3.097,-0.972 -3.097,-3.187 0,-1.363 1.097,-2.285 2.726,-2.285 h 1.512 c 1.414,0 2.164,-0.301 2.387,-0.578 0.39,-0.414 0.843,-1.926 0.824,-6.746 v -0.414 -23.567 c 0,-0.715 0.019,-1.394 0.035,-2.058 0.125,-4.844 -0.039,-6.54 -4.074,-6.946 l -0.571,-0.035 c -1.164,-0.055 -3.882,-0.184 -3.882,-2.984 0,-1.168 0.769,-2.532 2.953,-2.532 1.844,0 3.726,0.133 5.543,0.262 1.808,0.133 3.676,0.266 5.492,0.266 1.652,0 3.363,-0.121 5.168,-0.254 1.871,-0.137 3.805,-0.274 5.75,-0.274 1.656,0 2.723,1.043 2.723,2.657 0,2.586 -2.766,2.777 -3.95,2.855 l -0.5,0.039 c -4.039,0.406 -4.207,2.102 -4.078,6.946 0.016,0.664 0.031,1.343 0.031,2.058 v 19.805 0.574 c 0,4.668 -0.003,7.484 2.43,11.203 1.176,1.582 2.953,3.981 4.856,3.981 0.855,0 1.394,-0.621 2.273,-1.715 1.035,-1.289 2.445,-3.055 5.176,-3.055 3.656,0 6.215,2.594 6.215,6.305 0,4.164 -3.422,7.304 -7.961,7.304"
         style="fill:#46505c;fill-opacity:1;fill-rule:nonzero;stroke:none"
         id="path46" />
      <path
         d="m 347.023,183.254 0.024,0.176 c 0.121,1.113 0.414,3.722 2.812,3.722 2.52,0 3.055,-2.734 3.625,-5.632 1.008,-5.141 2.266,-11.543 11.633,-11.543 6.266,0 12.93,3.859 12.93,11.003 0,5.93 -3.961,8.54 -10.352,10.825 l -1.011,0.347 c -7.461,2.559 -17.688,6.063 -17.688,16.657 0,4.906 2.297,9.285 6.645,12.664 3.871,2.961 8.652,4.394 14.617,4.394 3.086,0 9.519,-0.863 12.586,-2.222 2.414,-1.223 2.238,-3.801 2.109,-5.684 -0.027,-0.41 -0.055,-0.793 -0.055,-1.129 l 0.04,-0.523 c 0.199,-2.344 0.316,-4.95 -0.868,-6.196 -0.441,-0.457 -1.027,-0.711 -1.664,-0.711 -1.851,0 -2.586,1.817 -3.367,3.735 -1.379,3.398 -3.266,8.051 -10.883,8.051 -3.851,0 -9.426,-2.844 -9.426,-7.993 0,-5.836 5.532,-7.855 11.934,-10.195 8.09,-2.957 17.266,-6.312 17.266,-18.262 0,-12.261 -11.957,-19.586 -23.516,-19.586 -4.051,0 -11.223,1.578 -15.449,3.93 -2.348,1.102 -2.324,3.195 -2.305,5.039 l 0.008,0.59 0.355,8.543"
         style="fill:#46505c;fill-opacity:1;fill-rule:nonzero;stroke:none"
         id="path48" />
      <path
         d="m 410.207,234.207 c 3.863,0 6.453,3.031 6.453,7.547 0,3.586 -2.324,7.297 -6.219,7.297 -3.683,0 -6.566,-3.317 -6.566,-7.547 0,-4.231 2.664,-7.297 6.332,-7.297"
         style="fill:#46505c;fill-opacity:1;fill-rule:nonzero;stroke:none"
         id="path50" />
      <path
         d="m 420.129,171.703 -0.5,0.043 c -4.035,0.402 -4.199,2.098 -4.074,6.942 0.015,0.66 0.035,1.343 0.035,2.058 v 41.84 0.203 c 0.012,0.734 0.019,1.738 -0.715,2.453 -0.289,0.289 -0.816,0.625 -1.656,0.625 -1.371,0 -2.207,-1.008 -2.758,-1.676 l -0.387,-0.457 c -1.719,-2.203 -6.515,-5.277 -9.031,-6.066 l -0.445,-0.145 c -1.082,-0.339 -3.098,-0.976 -3.098,-3.187 0,-1.367 1.094,-2.285 2.723,-2.285 h 1.515 c 1.41,0 2.16,-0.297 2.383,-0.578 0.387,-0.418 0.848,-1.926 0.828,-6.746 l -0.004,-0.414 v -23.567 c 0,-0.715 0.016,-1.398 0.035,-2.058 0.125,-4.844 -0.039,-6.54 -4.074,-6.942 l -0.57,-0.035 c -1.164,-0.055 -3.883,-0.188 -3.883,-2.988 0,-1.168 0.774,-2.532 2.953,-2.532 1.844,0 3.727,0.133 5.543,0.262 1.809,0.129 3.68,0.266 5.492,0.266 1.657,0 3.364,-0.125 5.172,-0.254 1.867,-0.133 3.805,-0.274 5.746,-0.274 1.653,0 2.719,1.043 2.719,2.653 0,2.59 -2.758,2.781 -3.949,2.859"
         style="fill:#46505c;fill-opacity:1;fill-rule:nonzero;stroke:none"
         id="path52" />
      <path
         d="m 459.012,174.695 c 0,1.024 -0.883,2.168 -2.141,2.168 -0.801,0 -1.41,-0.519 -2.41,-1.375 -1.41,-1.211 -3.539,-3.035 -5.973,-3.035 -1.269,0 -2.258,0.367 -3.047,1.129 -2.492,2.422 -2.492,8.223 -2.492,12.059 v 0.261 31.871 c 0,1.219 0.223,1.461 0.231,1.473 0.172,0.109 0.961,0.07 1.492,0.051 0.367,-0.024 0.797,-0.039 1.258,-0.039 h 6.511 c 0.457,0 0.879,-0.024 1.239,-0.043 1.121,-0.051 2.09,-0.102 2.859,0.609 0.742,0.676 0.84,1.692 0.84,2.684 0,0.824 0,3.012 -2.367,3.012 l -11.422,-0.008 c -0.36,0.027 -0.488,0.086 -0.531,0.101 -0.039,0.071 -0.11,0.305 -0.11,1.125 v 8.887 c 0,2.516 -1.578,2.789 -2.258,2.789 -1.492,0 -2.152,-1.422 -2.382,-1.906 -2.528,-5.738 -5.668,-8.676 -10.668,-12.168 l -0.25,-0.203 c -0.641,-0.508 -1.602,-1.274 -1.602,-2.61 0,-0.617 0.25,-1.179 0.711,-1.589 0.969,-0.86 2.531,-0.813 3.93,-0.704 l 0.3,0.024 c 0.27,0 0.532,0.004 0.75,0.008 0.258,0.004 0.559,0.011 0.758,0.004 0.032,-0.157 0.063,-0.442 0.063,-0.997 v -32.371 l -0.012,-1.781 c -0.051,-4.949 -0.109,-10.558 2.82,-14.586 2.063,-2.754 5.59,-4.398 9.422,-4.398 4.207,0 8.36,1.801 11.699,5.07 0.821,0.645 2.782,2.598 2.782,4.488"
         style="fill:#46505c;fill-opacity:1;fill-rule:nonzero;stroke:none"
         id="path54" />
      <path
         d="m 520.461,224.289 h -18.5 c -1.633,0 -2.949,-1.297 -2.949,-2.887 0,-2.148 2.797,-2.148 4,-2.148 3.207,0 4.828,-1.086 4.828,-3.227 0,-1.164 -0.891,-3.273 -1.418,-4.535 l -0.113,-0.25 c 0,-0.019 -8.5,-21.398 -11.77,-29.605 -3.238,8.371 -11.789,30.449 -11.789,30.449 l -0.102,0.246 c -0.539,1.398 -1.207,3.137 -1.207,4.445 0,2.411 4.118,2.477 4.598,2.477 2.731,0 4.121,0.723 4.121,2.148 0,1.895 -1.488,2.887 -2.961,2.887 h -22.461 c -2.078,0 -3.527,-1.187 -3.527,-2.887 0,-2.148 2.879,-2.148 4.117,-2.148 2.871,0 4.07,-2.652 5.57,-6.703 l 0.524,-1.371 15.328,-39.106 c 0.16,-0.429 0.328,-0.867 0.52,-1.328 0.492,-1.203 1.039,-2.57 1.039,-3.644 0,-0.872 -0.309,-1.664 -0.68,-2.575 -0.09,-0.246 -0.188,-0.496 -0.27,-0.726 l -3.961,-9.91 c -0.117,-0.305 -0.238,-0.621 -0.347,-0.922 -0.551,-1.551 -0.981,-2.586 -1.86,-2.809 -1.152,-0.265 -2.601,-0.242 -3.871,-0.222 l -0.941,0.007 c -5.051,0 -5.051,-4.336 -5.051,-6.187 0,-1.606 0.473,-2.867 1.391,-3.758 1.609,-1.562 4.16,-1.559 6.211,-1.559 h 0.242 c 5.066,0 5.687,1.356 6.887,5.637 l 0.05,0.227 23.371,59.465 c 1,2.503 4.032,10.117 6.25,13.144 1,1.383 3.149,2.25 4.098,2.356 l 0.563,0.054 c 1.179,0.11 3.148,0.293 3.148,1.957 0,1.797 -1.238,3.008 -3.078,3.008"
         style="fill:#46505c;fill-opacity:1;fill-rule:nonzero;stroke:none"
         id="path56" />
      <path
         d="m 549.672,247.344 c 0,0 0.008,-136.938 0.039,-137.387 2.961,-32.7929 36.828,-87.1367 92.73,-103.88278 l 2.918,-0.59375 2.711,0.59375 C 703.93,22.8086 737.77,77.5781 740.738,110.762 V 247.344 Z M 735.98,110.762 C 733.129,79.0352 700.512,26.6094 646.66,10.4727 l -0.84,-0.25 -0.281,-0.0821 -0.289,-0.0859 -0.281,0.0859 -0.278,0.0821 -0.851,0.25 c -53.891,16.1484 -86.539,68.3867 -89.391,99.8863 -0.008,0.25 -0.019,132.375 -0.019,132.375 H 735.98 V 110.762"
         style="fill:#ffffff;fill-opacity:1;fill-rule:nonzero;stroke:none"
         id="path58" />
      <path
         d="m 663.738,127.789 c -1.258,2.422 -2.66,3.172 -3.949,3.578 -0.148,0.379 -0.348,0.738 -0.598,1.078 -1.66,2.297 -4.363,2.606 -6.293,1.891 -0.687,-0.254 -1.109,-0.457 -1.437,-0.652 l 0.43,0.574 0.078,0.113 c 0.32,0.399 0.601,0.817 1.031,1.883 0.73,1.871 0.422,4.484 -1.961,6.094 -0.348,0.238 -0.719,0.429 -1.098,0.578 -0.41,1.219 -1.179,2.597 -3.703,3.82 l -0.699,0.336 -0.687,-0.336 c -2.5,-1.207 -3.282,-2.574 -3.704,-3.82 -0.386,-0.149 -0.757,-0.34 -1.109,-0.578 -2.367,-1.61 -2.687,-4.223 -1.949,-6.094 0.422,-1.066 0.711,-1.484 1.019,-1.883 l 0.09,-0.113 0.473,-0.629 c -0.344,0.207 -0.781,0.43 -1.531,0.707 -1.942,0.715 -4.629,0.406 -6.301,-1.891 -0.238,-0.34 -0.442,-0.699 -0.59,-1.074 -1.262,-0.394 -2.691,-1.137 -3.949,-3.582 l -0.352,-0.672 0.352,-0.672 c 1.25,-2.418 2.66,-3.168 3.949,-3.578 0.148,-0.375 0.352,-0.738 0.59,-1.074 1.672,-2.301 4.359,-2.605 6.301,-1.895 1.097,0.407 1.531,0.692 1.937,0.993 l 0.121,0.086 c 0,0 0.371,0.261 0.731,0.507 v -6.199 l -0.758,0.606 -0.973,-1.301 -0.09,-0.113 c -0.308,-0.399 -0.597,-0.817 -1.019,-1.879 -0.738,-1.875 -0.418,-4.489 1.949,-6.098 0.352,-0.238 0.723,-0.426 1.109,-0.574 0.411,-1.219 1.172,-2.602 3.704,-3.824 l 0.687,-0.336 0.699,0.336 c 2.492,1.211 3.274,2.578 3.692,3.824 0.39,0.148 0.761,0.336 1.109,0.574 2.383,1.609 2.691,4.223 1.961,6.098 -0.43,1.062 -0.711,1.48 -1.031,1.879 l -0.078,0.113 -0.969,1.281 -0.762,-0.594 v 6.172 l 0.68,-0.472 0.109,-0.086 c 0.422,-0.301 0.852,-0.586 1.949,-0.993 1.93,-0.71 4.633,-0.406 6.293,1.895 0.25,0.336 0.45,0.699 0.598,1.074 1.262,0.395 2.68,1.133 3.949,3.578 l 0.34,0.672 z m -3.726,-0.656 v -0.078 l -0.051,-0.071 c -0.012,-0.023 -1.391,-1.871 -3.371,-1.406 0.262,-0.551 0.351,-1.293 -0.192,-2.035 -0.789,-1.098 -1.976,-1 -2.5,-0.793 l -0.32,0.129 0.223,0.262 c 0,0 0.238,0.3 0.277,0.714 0.043,0.403 -0.008,1.004 -0.769,1.563 -0.368,0.266 -1.309,0.309 -1.688,0.309 v -0.004 l -0.062,-0.004 h -4.539 v -11.91 c -0.008,-0.356 0.031,-1.344 0.32,-1.707 0.582,-0.739 1.199,-0.778 1.621,-0.743 0.418,0.036 0.73,0.27 0.73,0.27 l 0.27,0.207 0.129,-0.305 c 0.219,-0.504 0.32,-1.652 -0.809,-2.426 -0.769,-0.519 -1.531,-0.429 -2.109,-0.183 0.488,-1.906 -1.422,-3.246 -1.442,-3.262 l -0.07,-0.047 h -0.082 -0.09 l -0.066,0.047 c -0.024,0.016 -1.934,1.356 -1.453,3.262 -0.571,-0.246 -1.328,-0.336 -2.098,0.183 -1.141,0.774 -1.031,1.922 -0.82,2.426 l 0.129,0.309 0.269,-0.211 c 0,0 0.313,-0.234 0.742,-0.27 0.418,-0.035 1.028,0.004 1.61,0.743 0.277,0.355 0.328,1.269 0.32,1.636 v 0.004 l -0.012,0.051 v 11.926 h -4.738 -0.051 l -0.011,0.008 c -0.379,0 -1.329,-0.043 -1.7,-0.309 -0.757,-0.563 -0.8,-1.16 -0.757,-1.563 0.039,-0.414 0.277,-0.714 0.277,-0.718 l 0.211,-0.258 -0.309,-0.129 c -0.519,-0.207 -1.711,-0.305 -2.511,0.793 -0.532,0.742 -0.45,1.484 -0.192,2.035 -1.969,-0.465 -3.348,1.383 -3.359,1.406 l -0.047,0.067 v 0.078 0.082 l 0.047,0.066 c 0.011,0.024 1.39,1.868 3.359,1.407 -0.258,0.55 -0.34,1.293 0.192,2.031 0.8,1.101 1.992,1 2.511,0.797 l 0.309,-0.129 -0.211,-0.262 c 0,0 -0.238,-0.297 -0.277,-0.715 -0.043,-0.402 0,-1.004 0.757,-1.558 0.379,-0.282 1.403,-0.325 1.762,-0.317 h 4.738 v 6.598 0.039 l 0.012,0.02 c 0.008,0.363 -0.043,1.285 -0.32,1.636 -0.582,0.739 -1.192,0.778 -1.61,0.742 -0.429,-0.039 -0.742,-0.269 -0.742,-0.273 l -0.269,-0.203 -0.129,0.305 c -0.211,0.5 -0.321,1.652 0.82,2.421 0.77,0.524 1.527,0.434 2.098,0.188 -0.481,1.906 1.429,3.25 1.453,3.262 l 0.066,0.047 h 0.082 0.078 l 0.082,-0.047 c 0.02,-0.012 1.93,-1.356 1.442,-3.262 0.578,0.246 1.34,0.336 2.109,-0.188 1.129,-0.769 1.028,-1.921 0.809,-2.421 l -0.129,-0.309 -0.27,0.211 c 0,0 -0.312,0.23 -0.73,0.269 -0.422,0.036 -1.039,-0.003 -1.621,-0.742 -0.289,-0.363 -0.328,-1.351 -0.32,-1.703 v -6.59 h 4.531 c 0.371,-0.008 1.379,0.035 1.758,0.317 0.761,0.554 0.812,1.156 0.769,1.558 -0.039,0.418 -0.277,0.715 -0.277,0.715 l -0.211,0.262 0.308,0.129 c 0.524,0.203 1.711,0.304 2.5,-0.797 0.543,-0.738 0.454,-1.481 0.192,-2.031 1.98,0.461 3.359,-1.383 3.371,-1.407 l 0.051,-0.066 v -0.078"
         style="fill:#fab93f;fill-opacity:1;fill-rule:nonzero;stroke:none"
         id="path60" />
      <path
         d="m 645.25,14.8789 c 54,16.1758 83.488,68.4531 85.969,95.8831 v 79.761 H 645.41 645 559.191 v -79.761 c 2.481,-27.43 32.071,-79.7073 86.059,-95.8831 m -49.91,46.0625 c 0,0 -0.102,-1.3594 1.629,-2.6992 0,0 -2.528,-2.1367 0.84,-5.0742 0,0 -5.829,2.4179 -2.469,7.7734 m 24.09,-18.4336 c -11.282,12.2695 -2.649,20.7031 5.57,24.0469 5.48,2.2344 5.328,3.8672 5.328,3.8672 0,0 6.102,-1.9102 9.723,0.3672 0,0 -0.832,-2.7891 -2.672,-5.1875 C 628.289,53.7891 622,59.7422 622,59.7422 614.75,56.4766 619.43,42.5078 619.43,42.5078 m 0.3,30.0078 0.45,-0.2343 c 4.261,-2.3868 1.16,-5.4961 1.16,-5.4961 0.332,2.2031 -0.399,3.0078 -1.238,3.3437 -0.352,0.1406 -0.614,0.1836 -0.614,0.1836 0.711,0.918 0.242,2.2031 0.242,2.2031 m 51.02,-2.0039 c 0,0 -0.27,-0.0429 -0.609,-0.1836 -0.852,-0.3359 -1.571,-1.1367 -1.243,-3.3398 0,0 -3.109,3.1094 1.153,5.4961 l 0.461,0.2344 c 0,0 -0.473,-1.2891 0.238,-2.2071 m -6.18,19.2735 c 0,0 0.961,-2.5039 1.16,-2.9336 2.051,-4.5391 -0.96,-10.5039 -0.96,-10.5039 1.609,8.2265 -7.372,15.7304 -7.372,15.7304 1.301,3.7383 5.223,9.2149 5.864,10.1019 0.008,0.004 0.008,0.008 0.008,0.015 l 0.011,-0.015 c 0.02,-0.301 0.43,-1.297 2.547,-4.5511 6.121,-9.3672 11.652,-8.7383 11.652,-8.7383 -5.14,-2.6953 -12.91,0.8946 -12.91,0.8946 m -1.711,20.8278 c -11.019,-18.945 -19,-21.531 -3.621,-34.5075 0,0 -9.828,-2.6563 -12.097,5.5859 0,0 0.48,-9.0781 -1.821,-11.4726 -2.281,2.3945 -1.832,11.3476 -1.832,11.3476 -2.269,-8.2422 -12.109,-5.5898 -12.109,-5.5898 15.391,12.9804 7.41,15.5625 -3.609,34.5074 -10.571,18.172 0.941,26.348 6.199,39.739 2.422,0.226 6.472,1.226 8.281,3.113 0,0 0.859,-1.539 3.078,-2.141 2.211,0.641 3.25,2.184 3.25,2.184 1.492,-1.887 5.992,-2.93 8.172,-3.082 5.27,-13.395 16.672,-21.52 6.109,-39.684 m -35.48,-8.433 v 0.015 c 0,-0.007 0,-0.011 0.012,-0.015 0.64,-0.887 4.57,-6.3636 5.859,-10.1019 0,0 -8.98,-7.5039 -7.371,-15.7304 0,0 -3.008,5.9648 -0.957,10.5039 0.199,0.4297 1.156,2.9336 1.156,2.9336 0,0 -7.769,-3.5899 -12.906,-0.8946 0,0 5.527,-0.6289 11.648,8.7383 2.121,3.2541 2.532,4.2501 2.559,4.5511 m 37.242,-60.5628 c -3.402,-2.6836 -6.09,4.8359 -6.09,4.8359 0,0 -0.402,-6.8945 -6.543,-6.9492 0,0 9.133,5.1719 -0.41,17.2813 0.922,-8.4961 -2.129,-16.4063 -6.258,-16.4063 -4.121,0 -7.172,7.9102 -6.25,16.4063 -9.531,-12.1094 -0.41,-17.2813 -0.41,-17.2813 -6.14,0.0547 -6.539,6.9492 -6.539,6.9492 0,0 -2.691,-7.5195 -6.09,-4.8359 -5.191,4.0898 3.848,8.1406 3.848,8.1406 -5.277,0.3242 -6.059,3.207 -6.059,3.207 13.328,-1.4023 19.25,12.1211 19.25,12.1211 0.871,-0.8437 1.551,-0.9687 2.239,-1.3046 0.703,0.3359 1.41,0.4609 2.269,1.3046 0,0 5.922,-13.5234 19.25,-12.1211 0,0 -0.769,-2.8828 -6.058,-3.207 0,0 9.031,-4.0508 3.851,-8.1406 m 6.598,0.8906 c 0,0 4.691,13.9688 -2.571,17.2344 0,0 -6.289,-5.9531 -15.378,5.8594 -1.84,2.3984 -2.668,5.1875 -2.668,5.1875 3.617,-2.2774 9.718,-0.3672 9.718,-0.3672 0,0 -0.148,-1.6328 5.328,-3.8672 8.223,-3.3438 16.864,-11.7774 5.571,-24.0469 M 692.84,53.168 c 3.371,2.9375 0.84,5.0742 0.84,5.0742 1.73,1.3398 1.64,2.6992 1.64,2.6992 3.36,-5.3555 -2.48,-7.7734 -2.48,-7.7734 m 6.09,18.2265 c -0.68,-0.4726 -1.52,-0.7226 -2.418,-0.7226 -1.121,0 -2.203,0.3906 -3.032,1.0937 -1.109,0.9336 -2.652,1.4922 -4.121,1.4922 -0.281,0 -0.539,-0.0195 -0.781,-0.0586 -0.637,-0.1054 -1.129,-0.3437 -1.308,-0.6406 -0.68,-1.1211 0.878,-2.6172 2.308,-3.6719 l 0.313,-0.2187 c 1.23,-0.8633 4.121,-2.8711 4.3,-5.5039 0.09,-1.293 -0.48,-2.5118 -1.691,-3.6133 -0.57,-0.5235 -1.371,-0.8125 -2.262,-0.8125 -0.449,0 -0.898,0.0742 -1.34,0.2226 -1.988,0.6602 -3.429,2.6329 -3.949,5.4141 -0.59,3.1602 -1.621,5.2109 -2.898,5.7734 -0.492,0.2149 -1.391,0.4454 -2.172,0.4454 -0.57,0 -1.027,-0.125 -1.32,-0.3555 -0.348,-0.2852 -1.188,-0.9024 -1.188,-0.9024 -0.68,-0.4375 -1.422,-0.6601 -2.172,-0.6601 -0.758,0 -1.488,0.2305 -2.097,0.668 -1.082,0.7773 -1.563,2.0625 -1.243,3.3515 0.282,1.1016 0.821,1.8516 1.61,2.2266 0.371,0.1719 0.781,0.2617 1.23,0.2617 0.961,0 1.903,-0.3984 2.531,-0.6953 0.25,-0.1211 0.571,-0.1797 0.942,-0.1797 0.469,0 0.879,0.0977 0.988,0.1328 0.141,0.0742 0.219,0.2109 0.219,0.2539 0,0.043 -0.129,0.2656 -0.66,0.5117 -7.278,3.3711 -8.789,7.3125 -8.848,7.4805 l -0.473,1.293 1.372,-0.1641 c 0.511,-0.0625 1.011,-0.0859 1.492,-0.0859 2.41,0 4.289,0.6367 4.308,0.6445 l 0.578,0.207 0.372,-0.4882 c 0.05,-0.0625 4.781,-6.0665 8.73,-6.0665 0.5,0.004 0.969,0.1016 1.398,0.2969 1.172,0.5235 1.692,2.586 1.704,3.5703 0.019,1.5508 0.937,2.8868 2.339,3.4024 0.368,0.1406 0.75,0.2109 1.129,0.2109 0.91,0 1.758,-0.3906 2.391,-1.0976 0.898,-1.0196 0.82,-2.0235 0.687,-2.5313 -0.347,-1.4062 -1.707,-2.3711 -2.757,-2.7734 -0.532,-0.1992 -1.161,-0.7305 -1.27,-1.0703 0.09,-0.1954 0.168,-0.2305 0.438,-0.2305 0,0 0.793,0.0273 0.812,0.0273 0.34,0 0.629,0.0469 0.938,0.0938 0.57,0.0859 1.332,0.1992 2.113,0.1992 2.066,0 3.406,-0.8281 3.976,-2.4531 0.614,-1.7344 0.153,-3.3321 -1.218,-4.2774 m -1.821,12.8789 c -0.187,1.1329 -1.468,1.7032 -1.468,1.7032 5.199,1.7695 5.679,-2.7344 5.679,-2.7344 -1.718,2.8008 -4.211,1.0312 -4.211,1.0312 m 5.129,-17.8515 c 2.09,3.9023 -1.066,5.039 -1.066,5.039 1.137,1.8438 0.547,3.086 0.547,3.086 5.101,-3.8633 0.519,-8.125 0.519,-8.125 m -13.679,97.6641 c 0,0 26.472,13.352 29.41,22.008 0,0 1.222,-7.672 0.73,-12.629 -0.437,-4.399 -7.5,-11.594 -24.539,-22.637 10.461,1.555 24.789,6.988 27.91,12.422 0,0 0.051,-7.867 -1.761,-12.531 -1.469,-3.785 -8.879,-6.489 -25.571,-14.422 8.242,-4.391 22.852,0.476 27.032,4.562 0,0 -2.309,-6.867 -5.051,-11.086 -1.731,-2.664 -8.649,-7.128 -24.731,-4.82 5.973,-7.191 17.422,-12.609 25.192,-9.207 0,0 -0.801,-6.828 -5.52,-8.824 -3.488,-1.473 -10.84,-2.41 -22.558,6.387 7.07,-16.9574 24.32,-11.778 24.32,-11.778 0,0 -4.082,-6.7537 -8.621,-9.0935 -4.031,-2.0742 -12.34,-0.4102 -25.821,13.7775 0,0 0.848,-12.5587 14.11,-16.7814 -23.07,0.5508 -27.211,17.4924 -27.211,17.4924 2.199,3.14 2.59,4.773 2.59,4.773 l 0.359,0.926 c 1.551,-1.617 7.352,-3.715 7.352,-3.715 0,0 3.351,2.82 4.191,3.981 2.238,3.121 2.598,5.406 2.598,5.406 3.91,-0.098 7.492,3.207 7.492,3.207 0.219,3.473 -1.25,6.379 -1.25,6.379 2.777,1.234 5.648,4 5.648,4 -1.859,3.828 -3.089,5.074 -3.089,5.074 4.449,3.332 4.609,5.375 4.609,5.375 -1.098,2.891 -5.16,5.738 -5.16,5.738 1.75,2.254 3.383,6.672 3.383,6.672 -3.204,3.113 -6.293,4.043 -6.293,4.043 0.5,1.762 0.382,3.445 0.25,5.301 m -8.93,9.949 c 0,0 7.812,-13.949 0.582,-19.066 0,0 4.5,0.453 8.398,-1.578 0,0 -2.699,-4.61 -5.437,-6.192 0,0 5.726,-2.761 7.269,-4.863 0,0 -3.582,-3.086 -8.691,-3.41 0,0 5.281,-3.242 6.68,-5.793 0,0 -3.95,-2.672 -8.969,-1.778 0,0 5.449,-3.574 5.867,-7.515 0,0 -5.609,-1.555 -9.469,3.062 0,0 3.551,-5.824 1.43,-9.773 -0.68,-1.262 -2.008,-2.488 -2.008,-2.488 -3.441,1.629 -3.992,1.781 -4.269,5.422 -0.133,1.75 0.316,2.011 0.168,5.808 -0.11,3.113 -0.461,6.078 -0.461,6.078 0,0 7.261,1.16 5.531,13.442 0,0 -9.898,-6.477 -10.969,2.347 -1.312,10.723 15.457,5.239 14.348,26.297 m -55.891,-2.824 c -0.047,-1.012 1.133,-2.535 2.184,-3.281 1.637,-1.172 14.367,-0.395 15.789,-0.332 -1.262,2.476 -6.949,6.707 -10.211,6.593 -3.371,-0.113 -4.18,-3.148 -4.18,-3.148 -1.461,1.613 -1.691,4.172 0.442,6.336 1.847,1.894 10.738,2.398 11.179,2.879 0.438,0.476 0.829,1.808 2.911,1.433 2.089,-0.371 4.07,-3.679 9.839,-2.23 0,0 4.731,0.316 3.68,2.98 -0.449,1.145 -2.91,1.168 -2.91,1.168 0,0 5.809,1 5.277,-3.671 -0.386,-3.352 -5.457,-2.829 -5.828,-8.512 -0.058,-0.852 -0.422,-12.196 5.942,-16.422 0,0 -7.563,0.492 -10.571,8.25 0,0 0,-5.664 -1.961,-5.688 -1.718,0.024 -2.398,5.473 -2.398,5.473 -0.692,-7.258 -9.434,-6.699 -9.434,-6.699 5.961,0.855 4.16,3.93 3.621,4.848 -0.8,1.382 -3.461,0.695 -4.281,0.468 -3.949,-1.074 -3.648,1.391 -3.648,1.391 l 10.121,0.004 c 2.687,0.215 2.41,2.523 2.711,3.418 -1.321,-0.012 -13.602,-0.367 -14.492,-0.317 -0.93,0.051 -1.391,-0.121 -2.918,0.887 -1.543,1.012 -0.864,4.172 -0.864,4.172 m -12.718,2.824 c -1.098,-21.058 15.66,-15.574 14.359,-26.297 -1.078,-8.824 -10.981,-2.347 -10.981,-2.347 -1.726,-12.282 5.532,-13.442 5.532,-13.442 0,0 -0.352,-2.965 -0.461,-6.078 -0.141,-3.797 0.301,-4.058 0.172,-5.808 -0.282,-3.641 -0.832,-3.793 -4.27,-5.422 0,0 -1.332,1.226 -2,2.488 -2.133,3.949 1.418,9.773 1.418,9.773 -3.859,-4.617 -9.461,-3.062 -9.461,-3.062 0.41,3.941 5.863,7.515 5.863,7.515 -5.019,-0.894 -8.98,1.778 -8.98,1.778 1.41,2.551 6.687,5.793 6.687,5.793 -5.109,0.324 -8.679,3.41 -8.679,3.41 1.531,2.102 7.261,4.863 7.261,4.863 -2.742,1.582 -5.429,6.192 -5.429,6.192 3.879,2.031 8.39,1.578 8.39,1.578 -7.23,5.117 0.579,19.066 0.579,19.066 m -33.79,-72.504 c 0,0 17.258,-5.1794 24.329,11.778 -11.731,-8.797 -19.079,-7.86 -22.571,-6.387 -4.718,1.996 -5.519,8.824 -5.519,8.824 7.769,-3.402 19.222,2.016 25.191,9.207 -16.082,-2.308 -23,2.156 -24.73,4.82 -2.731,4.219 -5.051,11.086 -5.051,11.086 4.18,-4.086 18.793,-8.953 27.019,-4.562 -16.679,7.933 -24.089,10.637 -25.558,14.422 -1.809,4.664 -1.762,12.531 -1.762,12.531 3.133,-5.434 17.453,-10.867 27.91,-12.422 -17.039,11.043 -24.097,18.238 -24.527,22.637 -0.5,4.957 0.73,12.629 0.73,12.629 2.93,-8.656 29.399,-22.008 29.399,-22.008 -0.129,-1.856 -0.238,-3.539 0.25,-5.301 0,0 -3.09,-0.93 -6.301,-4.043 0,0 1.652,-4.418 3.391,-6.672 0,0 -4.059,-2.847 -5.16,-5.738 0,0 0.16,-2.043 4.609,-5.375 0,0 -1.219,-1.246 -3.09,-5.074 0,0 2.871,-2.766 5.66,-4 0,0 -1.48,-2.906 -1.258,-6.379 0,0 3.579,-3.305 7.5,-3.207 0,0 0.348,-2.285 2.59,-5.406 0.84,-1.161 4.188,-3.981 4.188,-3.981 0,0 5.801,2.098 7.351,3.715 l 0.36,-0.926 c 0,0 0.39,-1.633 2.59,-4.773 0,0 -4.141,-16.9416 -27.211,-17.4924 13.261,4.2227 14.113,16.7814 14.113,16.7814 -13.481,-14.1877 -21.793,-15.8517 -25.82,-13.7775 -4.543,2.3398 -8.622,9.0935 -8.622,9.0935 m 11.18,-35.1091 c 0,0 -4.582,4.2617 0.52,8.125 0,0 -0.59,-1.2422 0.55,-3.086 0,0 -3.16,-1.1367 -1.07,-5.039 m 0.918,16.8203 c 0,0 0.481,4.5039 5.684,2.7344 0,0 -1.282,-0.5703 -1.461,-1.7032 0,0 -2.5,1.7696 -4.223,-1.0312 m 1.172,-7.5703 c 0.57,1.6289 1.922,2.4531 3.988,2.4531 0.793,0 1.551,-0.1133 2.102,-0.2031 0.34,-0.0508 0.672,-0.0938 0.82,-0.0938 l 0.942,-0.0234 c 0.277,0 0.339,0.043 0.449,0.2148 -0.129,0.3594 -0.762,0.8907 -1.289,1.0899 -1.133,0.4258 -2.434,1.4453 -2.762,2.7617 -0.148,0.625 -0.16,1.5742 0.691,2.5391 0.629,0.707 1.469,1.0937 2.379,1.0937 0.379,0 0.758,-0.0664 1.129,-0.2031 1.403,-0.5156 2.332,-1.8516 2.352,-3.4063 0.008,-0.9531 0.539,-3.0468 1.699,-3.5703 0.441,-0.1953 0.91,-0.2969 1.41,-0.2969 3.949,0 8.668,6.004 8.719,6.0665 l 0.383,0.4882 0.566,-0.207 c 0.024,-0.0078 1.844,-0.6445 4.293,-0.6445 0.481,0 0.988,0.0234 1.52,0.0859 l 1.359,0.1641 -0.469,-1.293 c -0.062,-0.168 -1.562,-4.1094 -8.851,-7.4805 -0.539,-0.25 -0.66,-0.4726 -0.66,-0.5117 0,-0.039 0.082,-0.1797 0.339,-0.3047 0.332,-0.0664 0.661,-0.0859 0.86,-0.0859 0.383,0 0.703,0.0586 0.961,0.1836 0.621,0.2969 1.558,0.6953 2.511,0.6953 0.45,0 0.868,-0.0898 1.239,-0.2656 0.789,-0.375 1.332,-1.1211 1.601,-2.2227 0.328,-1.2851 -0.14,-2.5664 -1.23,-3.3476 -0.61,-0.4414 -1.34,-0.6758 -2.11,-0.6758 -0.742,0 -1.472,0.2187 -2.121,0.6328 -0.019,0.0117 -0.879,0.6406 -1.242,0.9336 -0.277,0.2305 -0.726,0.3515 -1.308,0.3515 -0.899,0 -1.79,-0.2812 -2.168,-0.4453 -1.282,-0.5586 -2.301,-2.6093 -2.903,-5.7695 -0.519,-2.7812 -1.961,-4.7539 -3.937,-5.4141 -0.442,-0.1484 -0.903,-0.2226 -1.352,-0.2226 -0.89,0 -1.691,0.289 -2.262,0.8125 -1.207,1.1015 -1.777,2.3164 -1.687,3.6094 0.168,2.6289 3.059,4.6445 4.289,5.5 l 0.32,0.2265 c 1.43,1.0547 2.989,2.5469 2.309,3.6719 -0.18,0.2969 -0.668,0.5352 -1.309,0.6406 -0.242,0.0391 -0.5,0.0586 -0.769,0.0586 -1.473,0 -3.02,-0.5586 -4.121,-1.4922 -0.84,-0.7031 -1.918,-1.0937 -3.039,-1.0937 -0.903,0 -1.731,0.25 -2.422,0.7226 -1.367,0.9453 -1.828,2.543 -1.219,4.2774"
         style="fill:#fab93f;fill-opacity:1;fill-rule:nonzero;stroke:none"
         id="path62" />
      <path
         d="m 642.738,175.266 c 0,0.32 -0.109,0.629 -0.289,0.879 l 1.211,0.121 0.41,0.043 -0.109,0.382 -0.422,1.551 -0.098,0.375 -0.371,-0.144 -7.14,-2.688 3.832,0.207 -0.231,-0.726 c 0,-0.86 0.719,-1.555 1.61,-1.555 0.879,0 1.597,0.695 1.597,1.555"
         style="fill:#fab93f;fill-opacity:1;fill-rule:nonzero;stroke:none"
         id="path64" />
      <path
         d="m 593.551,84.2734 c 0.179,1.1329 1.461,1.7032 1.461,1.7032 -5.203,1.7695 -5.684,-2.7344 -5.684,-2.7344 1.723,2.8047 4.223,1.0312 4.223,1.0312"
         style="fill:#740232;fill-opacity:1;fill-rule:nonzero;stroke:none"
         id="path66" />
      <path
         d="m 588.93,74.5469 c -5.102,-3.8672 -0.52,-8.125 -0.52,-8.125 -2.09,3.9023 1.07,5.039 1.07,5.039 -1.14,1.8438 -0.55,3.086 -0.55,3.086"
         style="fill:#740232;fill-opacity:1;fill-rule:nonzero;stroke:none"
         id="path68" />
      <path
         d="m 596.969,58.2422 c -1.731,1.3398 -1.629,2.6992 -1.629,2.6992 -3.36,-5.3555 2.469,-7.7734 2.469,-7.7734 -3.368,2.9375 -0.84,5.0742 -0.84,5.0742"
         style="fill:#740232;fill-opacity:1;fill-rule:nonzero;stroke:none"
         id="path70" />
      <path
         d="m 670.051,72.4844 c -4.262,-2.3867 -1.153,-5.4961 -1.153,-5.4961 -0.328,2.2031 0.391,3.0039 1.243,3.3398 0.339,0.1407 0.609,0.1836 0.609,0.1836 -0.719,0.918 -0.238,2.2071 -0.238,2.2071 l -0.461,-0.2344"
         style="fill:#740232;fill-opacity:1;fill-rule:nonzero;stroke:none"
         id="path72" />
      <path
         d="m 695.641,85.9766 c 0,0 1.281,-0.5703 1.468,-1.7032 0,0 2.493,1.7735 4.211,-1.0312 0,0 -0.48,4.5039 -5.679,2.7344"
         style="fill:#740232;fill-opacity:1;fill-rule:nonzero;stroke:none"
         id="path74" />
      <path
         d="m 701.719,74.5469 c 0,0 0.59,-1.2422 -0.547,-3.086 0,0 3.156,-1.1367 1.066,-5.039 0,0 4.582,4.2578 -0.519,8.125"
         style="fill:#740232;fill-opacity:1;fill-rule:nonzero;stroke:none"
         id="path76" />
      <path
         d="m 693.68,58.2422 c 0,0 2.531,-2.1367 -0.84,-5.0742 0,0 5.84,2.4179 2.469,7.7734 0,0 0.101,-1.3594 -1.629,-2.6992"
         style="fill:#740232;fill-opacity:1;fill-rule:nonzero;stroke:none"
         id="path78" />
      <path
         d="m 637.379,65.6016 c 1.84,2.3984 2.672,5.1875 2.672,5.1875 -3.621,-2.2774 -9.723,-0.3672 -9.723,-0.3672 0,0 0.152,-1.6328 -5.328,-3.8633 -8.219,-3.3477 -16.852,-11.7813 -5.57,-24.0508 0,0 -4.68,13.9688 2.57,17.2344 0,0 6.289,-5.9531 15.379,5.8594"
         style="fill:#740232;fill-opacity:1;fill-rule:nonzero;stroke:none"
         id="path80" />
      <path
         d="m 610.441,154.969 c 0,0 -4.511,0.453 -8.39,-1.578 0,0 2.687,-4.61 5.429,-6.192 0,0 -5.73,-2.761 -7.261,-4.863 0,0 3.57,-3.086 8.679,-3.41 0,0 -5.289,-3.242 -6.687,-5.793 0,0 3.961,-2.676 8.98,-1.778 0,0 -5.453,-3.574 -5.863,-7.515 0,0 5.602,-1.555 9.461,3.062 0,0 -3.551,-5.824 -1.418,-9.773 0.668,-1.262 2,-2.488 2,-2.488 3.438,1.629 3.988,1.781 4.27,5.422 0.129,1.75 -0.313,2.011 -0.172,5.808 0.109,3.113 0.461,6.078 0.461,6.078 0,0 -7.258,1.16 -5.532,13.442 0,0 9.903,-6.477 10.981,2.347 1.301,10.723 -15.457,5.239 -14.359,26.297 0,0 -7.809,-13.949 -0.579,-19.066"
         style="fill:#740232;fill-opacity:1;fill-rule:nonzero;stroke:none"
         id="path82" />
      <path
         d="m 611.672,106.215 c 0,0 -0.852,-12.5587 -14.113,-16.7814 23.07,0.5469 27.211,17.4924 27.211,17.4924 -2.2,3.14 -2.59,4.773 -2.59,4.773 l -0.36,0.926 c -1.55,-1.617 -7.351,-3.715 -7.351,-3.715 0,0 -3.348,2.82 -4.188,3.981 -2.242,3.121 -2.59,5.406 -2.59,5.406 -3.921,-0.098 -7.5,3.207 -7.5,3.207 -0.222,3.473 1.258,6.379 1.258,6.379 -2.789,1.234 -5.66,4 -5.66,4 1.871,3.828 3.09,5.074 3.09,5.074 -4.449,3.332 -4.609,5.375 -4.609,5.375 1.101,2.895 5.16,5.738 5.16,5.738 -1.739,2.258 -3.391,6.672 -3.391,6.672 3.211,3.113 6.301,4.043 6.301,4.043 -0.488,1.762 -0.379,3.449 -0.25,5.301 0,0 -26.469,13.352 -29.399,22.004 0,0 -1.23,-7.668 -0.73,-12.625 0.43,-4.399 7.488,-11.594 24.527,-22.637 -10.457,1.555 -24.777,6.988 -27.91,12.422 0,0 -0.047,-7.867 1.762,-12.535 1.469,-3.781 8.879,-6.485 25.558,-14.418 -8.226,-4.391 -22.839,0.476 -27.019,4.562 0,0 2.32,-6.867 5.051,-11.086 1.73,-2.66 8.648,-7.128 24.73,-4.82 -5.969,-7.191 -17.422,-12.609 -25.191,-9.207 0,0 0.801,-6.828 5.519,-8.824 3.492,-1.473 10.84,-2.414 22.571,6.387 -7.071,-16.9574 -24.329,-11.778 -24.329,-11.778 0,0 4.079,-6.7537 8.622,-9.0935 4.027,-2.0742 12.339,-0.4102 25.82,13.7775"
         style="fill:#740232;fill-opacity:1;fill-rule:nonzero;stroke:none"
         id="path84" />
      <path
         d="m 613.172,88.8906 c 5.137,-2.6953 12.906,0.8946 12.906,0.8946 0,0 -0.957,-2.5039 -1.156,-2.9336 -2.051,-4.5391 0.957,-10.5039 0.957,-10.5039 -1.609,8.2265 7.371,15.7304 7.371,15.7304 -1.289,3.7383 -5.219,9.2149 -5.859,10.1019 -0.012,0.004 -0.012,0.008 -0.012,0.015 v -0.015 c -0.027,-0.301 -0.438,-1.297 -2.559,-4.5511 -6.121,-9.3672 -11.648,-8.7383 -11.648,-8.7383"
         style="fill:#740232;fill-opacity:1;fill-rule:nonzero;stroke:none"
         id="path86" />
      <path
         d="m 677.48,88.8906 c 0,0 -5.531,-0.6289 -11.652,8.7383 -2.117,3.2541 -2.527,4.2501 -2.547,4.5511 l -0.011,0.015 c 0,-0.007 0,-0.011 -0.008,-0.015 -0.641,-0.887 -4.563,-6.3636 -5.864,-10.1019 0,0 8.981,-7.5039 7.372,-15.7304 0,0 3.011,5.9648 0.96,10.5039 -0.199,0.4297 -1.16,2.9336 -1.16,2.9336 0,0 7.77,-3.5899 12.91,-0.8946"
         style="fill:#740232;fill-opacity:1;fill-rule:nonzero;stroke:none"
         id="path88" />
      <path
         d="m 597.18,71.7656 c 1.109,0.9336 2.648,1.4961 4.121,1.4961 0.269,0 0.527,-0.0234 0.769,-0.0625 0.641,-0.1054 1.129,-0.3437 1.309,-0.6445 0.68,-1.1211 -0.879,-2.6133 -2.309,-3.668 l -0.32,-0.2265 c -1.23,-0.8594 -4.121,-2.8672 -4.289,-5.5 -0.09,-1.293 0.48,-2.5079 1.687,-3.6133 0.571,-0.5196 1.372,-0.8086 2.262,-0.8086 0.449,0 0.91,0.0742 1.352,0.2265 1.976,0.6563 3.418,2.629 3.937,5.4102 0.602,3.1602 1.629,5.2109 2.903,5.7695 0.378,0.168 1.269,0.4453 2.168,0.4453 0.582,0 1.031,-0.121 1.32,-0.3515 0.351,-0.293 1.211,-0.9219 1.23,-0.9336 0.649,-0.4141 1.379,-0.6328 2.121,-0.6328 0.77,0 1.5,0.2344 2.11,0.6758 1.09,0.7812 1.558,2.0625 1.23,3.3476 -0.269,1.1016 -0.812,1.8477 -1.601,2.2227 -0.371,0.1758 -0.789,0.2656 -1.239,0.2656 -0.953,0 -1.89,-0.3984 -2.511,-0.6953 -0.258,-0.125 -0.578,-0.1836 -0.961,-0.1836 -0.199,0 -0.528,0.0195 -0.86,0.0859 -0.25,0.125 -0.339,0.2696 -0.339,0.3008 0,0.043 0.121,0.2656 0.66,0.5156 7.289,3.3711 8.789,7.3125 8.851,7.4805 l 0.469,1.293 -1.359,-0.1641 c -0.532,-0.0586 -1.039,-0.0859 -1.52,-0.0859 -2.449,0 -4.269,0.6367 -4.293,0.6445 l -0.566,0.2031 -0.383,-0.4843 c -0.051,-0.0625 -4.77,-6.0665 -8.719,-6.0665 -0.5,0 -0.98,0.1016 -1.41,0.2969 -1.16,0.5235 -1.691,2.6172 -1.699,3.5703 -0.02,1.5547 -0.949,2.8907 -2.352,3.4063 -0.371,0.1367 -0.75,0.2031 -1.129,0.2031 -0.91,0 -1.75,-0.3867 -2.379,-1.0937 -0.851,-0.9649 -0.839,-1.9141 -0.691,-2.5391 0.328,-1.3125 1.629,-2.3359 2.762,-2.7617 0.527,-0.1992 1.16,-0.7305 1.289,-1.0899 -0.11,-0.1718 -0.172,-0.2148 -0.449,-0.2148 l -0.942,0.0234 c -0.148,0 -0.48,0.043 -0.82,0.0938 -0.551,0.0859 -1.309,0.2031 -2.102,0.2031 -2.066,0 -3.418,-0.8242 -3.988,-2.4531 -0.609,-1.7344 -0.148,-3.3321 1.219,-4.2774 0.679,-0.4726 1.519,-0.7187 2.422,-0.7187 1.121,0 2.199,0.3867 3.039,1.0898"
         style="fill:#740232;fill-opacity:1;fill-rule:nonzero;stroke:none"
         id="path90" />
      <path
         d="m 620.102,70.1289 c 0.839,-0.3359 1.57,-1.1406 1.238,-3.3437 0,0 3.101,3.1093 -1.16,5.4961 l -0.45,0.2343 c 0,0 0.469,-1.2851 -0.242,-2.2031 0,0 0.262,-0.043 0.614,-0.1836"
         style="fill:#740232;fill-opacity:1;fill-rule:nonzero;stroke:none"
         id="path92" />
      <path
         d="m 665.648,66.5547 c -5.476,2.2344 -5.328,3.8672 -5.328,3.8672 0,0 -6.101,-1.9102 -9.718,0.3711 0,0 0.828,-2.793 2.668,-5.1914 9.089,-11.8125 15.378,-5.8594 15.378,-5.8594 7.262,-3.2656 2.571,-17.2344 2.571,-17.2344 11.293,12.2695 2.652,20.7031 -5.571,24.0469"
         style="fill:#740232;fill-opacity:1;fill-rule:nonzero;stroke:none"
         id="path94" />
      <path
         d="m 676.25,145.391 c 1.73,-12.282 -5.531,-13.442 -5.531,-13.442 0,0 0.351,-2.965 0.461,-6.078 0.148,-3.797 -0.301,-4.058 -0.168,-5.808 0.277,-3.641 0.828,-3.793 4.269,-5.422 0,0 1.328,1.226 2.008,2.488 2.121,3.949 -1.43,9.773 -1.43,9.773 3.86,-4.617 9.469,-3.062 9.469,-3.062 -0.418,3.941 -5.867,7.515 -5.867,7.515 5.019,-0.898 8.969,1.778 8.969,1.778 -1.399,2.551 -6.68,5.793 -6.68,5.793 5.109,0.324 8.691,3.41 8.691,3.41 -1.543,2.102 -7.269,4.863 -7.269,4.863 2.738,1.582 5.437,6.192 5.437,6.192 -3.898,2.031 -8.398,1.578 -8.398,1.578 7.23,5.117 -0.582,19.066 -0.582,19.066 1.109,-21.058 -15.66,-15.574 -14.348,-26.297 1.071,-8.824 10.969,-2.347 10.969,-2.347"
         style="fill:#740232;fill-opacity:1;fill-rule:nonzero;stroke:none"
         id="path96" />
      <path
         d="m 694.602,154.742 c 0,0 -1.641,-4.414 -3.383,-6.672 0,0 4.062,-2.843 5.16,-5.738 0,0 -0.16,-2.043 -4.609,-5.375 0,0 1.218,-1.246 3.089,-5.074 0,0 -2.871,-2.766 -5.66,-4 0,0 1.481,-2.906 1.262,-6.379 0,0 -3.582,-3.305 -7.492,-3.207 0,0 -0.348,-2.285 -2.598,-5.406 -0.84,-1.161 -4.191,-3.981 -4.191,-3.981 0,0 -5.801,2.098 -7.352,3.715 l -0.359,-0.926 c 0,0 -0.391,-1.633 -2.59,-4.773 0,0 4.141,-16.9416 27.211,-17.4924 -13.262,4.2227 -14.102,16.7814 -14.102,16.7814 13.481,-14.1877 21.782,-15.8517 25.813,-13.7775 4.539,2.3398 8.621,9.0935 8.621,9.0935 0,0 -17.25,-5.1794 -24.332,11.778 11.73,-8.797 19.09,-7.86 22.57,-6.387 4.719,1.996 5.52,8.824 5.52,8.824 -7.77,-3.402 -19.219,2.016 -25.192,9.207 16.082,-2.308 23,2.16 24.731,4.82 2.742,4.219 5.051,11.086 5.051,11.086 -4.18,-4.086 -18.79,-8.953 -27.032,-4.562 16.692,7.933 24.102,10.637 25.571,14.422 1.812,4.664 1.761,12.531 1.761,12.531 -3.129,-5.434 -17.449,-10.867 -27.91,-12.418 17.039,11.039 24.102,18.234 24.539,22.633 0.492,4.957 -0.73,12.629 -0.73,12.629 -2.938,-8.656 -29.399,-22.008 -29.399,-22.008 0.121,-1.852 0.239,-3.539 -0.261,-5.301 0,0 3.089,-0.93 6.293,-4.043"
         style="fill:#740232;fill-opacity:1;fill-rule:nonzero;stroke:none"
         id="path98" />
      <path
         d="m 696.172,78.125 c -0.781,0 -1.543,-0.1133 -2.113,-0.1992 -0.309,-0.0469 -0.598,-0.0938 -0.938,-0.0938 -0.019,0 -0.812,-0.0273 -0.812,-0.0273 -0.27,0 -0.348,0.0351 -0.438,0.2305 0.109,0.3437 0.738,0.8711 1.27,1.0703 1.05,0.4023 2.41,1.3672 2.757,2.7734 0.133,0.5078 0.211,1.5117 -0.687,2.5313 -0.633,0.707 -1.481,1.0976 -2.383,1.0976 -0.387,0 -0.769,-0.0703 -1.129,-0.2109 -1.41,-0.5156 -2.328,-1.8516 -2.347,-3.4024 -0.012,-0.9843 -0.532,-3.0468 -1.704,-3.5703 -0.429,-0.1953 -0.898,-0.2929 -1.398,-0.2969 -3.949,0 -8.68,6.004 -8.73,6.0665 l -0.372,0.4843 -0.578,-0.2031 c -0.019,-0.0078 -1.898,-0.6445 -4.308,-0.6445 -0.481,0 -0.981,0.0273 -1.492,0.0859 l -1.372,0.1641 0.473,-1.293 c 0.059,-0.168 1.57,-4.1094 8.848,-7.4805 0.531,-0.2461 0.66,-0.4687 0.66,-0.5117 0,-0.043 -0.078,-0.1797 -0.207,-0.2539 -0.121,-0.0312 -0.531,-0.1328 -1,-0.1328 -0.371,0 -0.692,0.0586 -0.942,0.1797 -0.628,0.2969 -1.57,0.6953 -2.531,0.6953 -0.449,0 -0.859,-0.0898 -1.23,-0.2617 -0.789,-0.375 -1.328,-1.125 -1.61,-2.2266 -0.32,-1.289 0.161,-2.5742 1.243,-3.3515 0.609,-0.4375 1.339,-0.668 2.097,-0.668 0.75,0 1.492,0.2226 2.172,0.6601 0,0 0.84,0.6172 1.188,0.9024 0.293,0.2305 0.75,0.3555 1.32,0.3555 0.781,0 1.68,-0.2305 2.172,-0.4454 1.277,-0.5625 2.308,-2.6132 2.898,-5.7734 0.52,-2.7812 1.961,-4.7539 3.949,-5.4141 0.442,-0.1484 0.891,-0.2226 1.34,-0.2226 0.891,0 1.692,0.289 2.262,0.8086 1.211,1.1054 1.781,2.3242 1.691,3.6172 -0.171,2.6328 -3.07,4.6445 -4.3,5.5039 l -0.313,0.2187 c -1.43,1.0547 -2.988,2.5508 -2.308,3.668 0.179,0.3008 0.671,0.5391 1.308,0.6445 0.242,0.0391 0.5,0.0625 0.781,0.0625 1.469,0 3.012,-0.5625 4.121,-1.4961 0.829,-0.7031 1.911,-1.0898 3.032,-1.0898 0.898,0 1.726,0.2461 2.418,0.7187 1.371,0.9453 1.832,2.543 1.218,4.2774 -0.57,1.625 -1.91,2.4531 -3.976,2.4531"
         style="fill:#740232;fill-opacity:1;fill-rule:nonzero;stroke:none"
         id="path100" />
      <path
         d="m 666.828,52.9648 c -13.328,-1.4023 -19.25,12.1211 -19.25,12.1211 -0.859,-0.8437 -1.566,-0.9687 -2.269,-1.3046 -0.688,0.3359 -1.368,0.4609 -2.239,1.3046 0,0 -5.922,-13.5234 -19.25,-12.1211 0,0 0.782,-2.8867 6.059,-3.207 0,0 -9.039,-4.0547 -3.848,-8.1445 3.399,-2.6797 6.09,4.8398 6.09,4.8398 0,0 0.399,-6.8945 6.539,-6.9492 0,0 -9.121,5.1719 0.41,17.2813 -0.922,-8.4961 2.129,-16.4063 6.25,-16.4063 4.129,0 7.18,7.9102 6.258,16.4063 9.543,-12.1094 0.41,-17.2813 0.41,-17.2813 6.141,0.0547 6.543,6.9492 6.543,6.9492 0,0 2.688,-7.5195 6.09,-4.8398 5.18,4.0898 -3.851,8.1445 -3.851,8.1445 5.289,0.3203 6.058,3.207 6.058,3.207"
         style="fill:#740232;fill-opacity:1;fill-rule:nonzero;stroke:none"
         id="path102" />
      <path
         d="m 624.602,167.039 c 1.527,-1.008 1.988,-0.836 2.918,-0.887 0.89,-0.05 13.171,0.305 14.492,0.317 -0.301,-0.895 -0.024,-3.203 -2.711,-3.422 H 629.18 c 0,0 -0.301,-2.465 3.648,-1.387 0.82,0.223 3.481,0.91 4.281,-0.472 0.539,-0.918 2.34,-3.993 -3.621,-4.848 0,0 8.742,-0.555 9.434,6.699 0,0 0.68,-5.449 2.398,-5.469 1.961,0.02 1.961,5.684 1.961,5.684 3.008,-7.758 10.571,-8.25 10.571,-8.25 -6.364,4.226 -6,15.57 -5.942,16.422 0.371,5.683 5.442,5.16 5.82,8.512 0.54,4.671 -5.269,3.671 -5.269,3.671 0,0 2.461,-0.019 2.91,-1.168 1.051,-2.664 -3.68,-2.98 -3.68,-2.98 -5.769,-1.449 -7.75,1.859 -9.839,2.234 -2.082,0.371 -2.473,-0.961 -2.911,-1.437 -0.441,-0.481 -9.332,-0.985 -11.179,-2.875 -2.133,-2.168 -1.903,-4.727 -0.442,-6.34 0,0 0.809,3.035 4.18,3.148 3.262,0.114 8.949,-4.117 10.211,-6.593 -1.422,-0.063 -14.152,-0.844 -15.789,0.332 -1.051,0.746 -2.242,2.273 -2.184,3.281 0,0 -0.679,-3.16 0.864,-4.172 m 16.539,6.672 c -0.891,0 -1.61,0.695 -1.61,1.551 l 0.231,0.73 -3.832,-0.207 7.14,2.688 0.371,0.144 0.098,-0.375 0.422,-1.554 0.109,-0.379 -0.41,-0.043 -1.211,-0.121 c 0.18,-0.25 0.289,-0.559 0.289,-0.883 0,-0.856 -0.718,-1.551 -1.597,-1.551"
         style="fill:#740232;fill-opacity:1;fill-rule:nonzero;stroke:none"
         id="path104" />
      <path
         d="m 656.75,150.297 c -2.18,0.152 -6.68,1.195 -8.172,3.082 0,0 -1.039,-1.543 -3.25,-2.184 -2.219,0.602 -3.078,2.141 -3.078,2.141 -1.809,-1.887 -5.859,-2.887 -8.281,-3.113 -5.258,-13.391 -16.77,-21.567 -6.199,-39.739 11.019,-18.9449 19,-21.527 3.609,-34.5074 0,0 9.84,-2.6524 12.109,5.5898 0,0 -0.449,-8.9531 1.832,-11.3476 2.301,2.3945 1.821,11.4726 1.821,11.4726 2.269,-8.2422 12.097,-5.5859 12.097,-5.5859 -15.379,12.9765 -7.398,15.5625 3.621,34.5075 10.563,18.164 -0.839,26.289 -6.109,39.684 m 3.031,-27.43 c -0.14,-0.375 -0.34,-0.738 -0.59,-1.074 -1.66,-2.301 -4.363,-2.605 -6.293,-1.895 -1.097,0.407 -1.527,0.692 -1.949,0.993 l -0.109,0.086 -0.68,0.472 v -6.172 l 0.762,0.594 0.969,-1.281 0.078,-0.11 c 0.32,-0.402 0.601,-0.82 1.031,-1.882 0.73,-1.875 0.422,-4.489 -1.961,-6.098 -0.348,-0.238 -0.719,-0.426 -1.109,-0.574 -0.418,-1.246 -1.192,-2.613 -3.692,-3.824 l -0.699,-0.336 -0.687,0.336 c -2.532,1.222 -3.293,2.605 -3.704,3.824 -0.386,0.148 -0.757,0.336 -1.109,0.574 -2.367,1.609 -2.687,4.223 -1.949,6.098 0.422,1.062 0.711,1.48 1.019,1.882 l 0.09,0.11 0.973,1.301 0.758,-0.606 v 6.199 c -0.36,-0.246 -0.731,-0.507 -0.731,-0.507 l -0.121,-0.086 c -0.406,-0.301 -0.84,-0.586 -1.937,-0.993 -1.942,-0.71 -4.629,-0.406 -6.301,1.895 -0.238,0.336 -0.442,0.699 -0.59,1.074 -1.289,0.41 -2.699,1.16 -3.949,3.578 l -0.352,0.672 0.352,0.672 c 1.258,2.445 2.687,3.188 3.949,3.582 0.148,0.375 0.352,0.734 0.59,1.074 1.672,2.297 4.359,2.606 6.301,1.891 0.75,-0.277 1.187,-0.5 1.531,-0.707 l -0.473,0.633 -0.09,0.109 c -0.308,0.399 -0.597,0.817 -1.019,1.883 -0.738,1.871 -0.418,4.484 1.949,6.094 0.352,0.238 0.723,0.429 1.109,0.578 0.422,1.246 1.204,2.613 3.704,3.82 l 0.687,0.336 0.699,-0.336 c 2.524,-1.223 3.293,-2.601 3.703,-3.82 0.379,-0.149 0.75,-0.34 1.098,-0.578 2.383,-1.61 2.691,-4.223 1.961,-6.094 -0.43,-1.066 -0.711,-1.484 -1.031,-1.883 l -0.078,-0.109 -0.43,-0.578 c 0.328,0.195 0.75,0.398 1.437,0.652 1.93,0.715 4.633,0.406 6.293,-1.891 0.25,-0.34 0.45,-0.699 0.59,-1.078 1.297,-0.406 2.699,-1.156 3.957,-3.578 l 0.34,-0.672 -0.34,-0.672 c -1.269,-2.445 -2.687,-3.183 -3.957,-3.578"
         style="fill:#740232;fill-opacity:1;fill-rule:nonzero;stroke:none"
         id="path106" />
      <path
         d="m 656.59,128.684 c 0.262,0.55 0.351,1.293 -0.192,2.031 -0.789,1.105 -1.976,1.004 -2.5,0.797 l -0.308,-0.129 0.211,-0.262 c 0,0 0.238,-0.297 0.277,-0.715 0.043,-0.402 -0.008,-1.004 -0.769,-1.558 -0.379,-0.282 -1.387,-0.325 -1.758,-0.317 h -4.531 v 6.59 c -0.008,0.352 0.031,1.34 0.32,1.703 0.582,0.739 1.199,0.778 1.621,0.742 0.418,-0.039 0.73,-0.269 0.73,-0.269 l 0.27,-0.211 0.129,0.312 c 0.219,0.497 0.32,1.649 -0.809,2.418 -0.769,0.524 -1.531,0.434 -2.109,0.188 0.488,1.906 -1.422,3.25 -1.442,3.262 l -0.082,0.047 h -0.078 -0.082 l -0.066,-0.047 c -0.024,-0.012 -1.934,-1.356 -1.453,-3.262 -0.571,0.246 -1.328,0.336 -2.098,-0.188 -1.141,-0.769 -1.031,-1.921 -0.82,-2.418 l 0.129,-0.308 0.269,0.203 c 0,0.004 0.313,0.234 0.742,0.273 0.418,0.036 1.039,-0.003 1.61,-0.742 0.277,-0.351 0.328,-1.273 0.32,-1.636 l -0.012,-0.016 v -0.043 -6.598 h -4.738 c -0.359,-0.008 -1.383,0.035 -1.762,0.317 -0.757,0.554 -0.8,1.156 -0.757,1.558 0.039,0.418 0.277,0.715 0.277,0.715 l 0.211,0.262 -0.309,0.129 c -0.519,0.207 -1.711,0.308 -2.511,-0.797 -0.532,-0.738 -0.45,-1.481 -0.192,-2.031 -1.969,0.461 -3.348,-1.383 -3.359,-1.407 l -0.047,-0.07 v -0.078 -0.078 l 0.047,-0.067 c 0.011,-0.023 1.39,-1.871 3.359,-1.406 -0.258,-0.551 -0.34,-1.293 0.192,-2.035 0.8,-1.098 1.992,-1 2.511,-0.793 l 0.309,0.129 -0.211,0.258 c 0,0.004 -0.238,0.301 -0.277,0.718 -0.043,0.403 0,1 0.757,1.559 0.371,0.27 1.321,0.313 1.7,0.313 l 0.011,-0.008 h 0.051 4.738 v -11.926 l 0.012,-0.051 v -0.004 c 0.008,-0.367 -0.043,-1.281 -0.32,-1.64 -0.571,-0.735 -1.192,-0.774 -1.61,-0.739 -0.429,0.036 -0.742,0.27 -0.742,0.27 l -0.269,0.211 -0.129,-0.309 c -0.211,-0.504 -0.321,-1.652 0.82,-2.426 0.77,-0.519 1.527,-0.429 2.098,-0.183 -0.481,-1.906 1.429,-3.25 1.453,-3.262 l 0.066,-0.047 h 0.09 0.082 l 0.07,0.047 c 0.02,0.012 1.93,1.356 1.442,3.262 0.578,-0.246 1.34,-0.336 2.109,0.183 1.129,0.774 1.028,1.922 0.809,2.426 l -0.129,0.305 -0.27,-0.207 c 0,0 -0.312,-0.234 -0.73,-0.27 -0.422,-0.035 -1.039,0.004 -1.621,0.739 -0.289,0.367 -0.328,1.355 -0.32,1.711 v 11.91 h 4.539 l 0.062,0.004 v 0.004 c 0.379,0 1.32,-0.043 1.688,-0.313 0.761,-0.555 0.812,-1.156 0.769,-1.559 -0.039,-0.417 -0.277,-0.714 -0.277,-0.714 l -0.223,-0.262 0.32,-0.129 c 0.524,-0.207 1.711,-0.305 2.5,0.793 0.543,0.742 0.454,1.484 0.192,2.035 1.98,-0.465 3.359,1.383 3.371,1.406 l 0.051,0.071 v 0.078 0.078 l -0.051,0.066 c -0.012,0.024 -1.391,1.868 -3.371,1.407"
         style="fill:#740232;fill-opacity:1;fill-rule:nonzero;stroke:none"
         id="path108" />
      <path
         d="m 554.43,242.734 c 0,0 0.011,-132.125 0.019,-132.375 2.852,-31.4996 35.5,-83.7379 89.391,-99.8863 l 0.851,-0.25 0.278,-0.0821 0.281,-0.0898 0.289,0.0898 0.281,0.0821 0.84,0.25 c 53.852,16.1367 86.469,68.5625 89.32,100.2893 v 131.972 z m 157.859,-37.55 -7.988,0.656 c -0.199,-0.723 -0.641,-2.613 -0.492,-4.863 0.113,-1.618 0.882,-2.129 1.511,-2.539 l 1.321,-0.907 h -7.801 l 1.34,0.918 c 0.629,0.414 1.429,0.93 1.492,2.52 0.09,2.246 -0.32,4.136 -0.5,4.871 l -7.992,-0.656 1.761,2.726 -8.07,7.387 2.449,0.742 -1.422,5.363 5.161,-1.074 0.98,2.66 3.012,-3.297 -0.879,8.532 3.168,-2.535 3.398,6.421 3.403,-6.421 3.16,2.535 -0.871,-8.535 3.011,3.304 0.981,-2.664 5.156,1.074 -1.418,-5.363 2.449,-0.742 -8.07,-7.387 z m -36.18,19.953 v -28.426 h -25.371 l -0.109,0.238 c -0.02,0.035 -1.789,3.645 -5.051,3.645 -0.019,0 -0.027,0 -0.047,0 -3.23,-0.028 -5.011,-3.614 -5.031,-3.649 l -0.121,-0.234 H 615.02 v 28.426 h 5.05 v 4.195 l 4.09,0.016 c 0.078,-0.004 5.328,-0.223 7.981,0.82 4.988,1.969 8.91,2.129 11.589,0.559 0.141,-0.086 0.282,-0.168 0.418,-0.258 0.102,-0.078 0.231,-0.133 0.332,-0.211 0.02,-0.02 0.051,-0.035 0.071,-0.051 0.371,-0.297 0.711,-0.633 1.019,-1.008 0.399,0.496 0.879,0.895 1.391,1.25 0.141,0.098 0.289,0.192 0.437,0.278 2.68,1.574 6.614,1.41 11.59,-0.559 2.653,-1.043 7.903,-0.82 7.961,-0.824 l 4.11,-0.012 v -4.195 z m -79.328,-19.953 -7.992,0.656 c -0.18,-0.735 -0.578,-2.625 -0.488,-4.875 0.058,-1.586 0.847,-2.102 1.488,-2.516 l 1.34,-0.918 h -7.801 l 1.32,0.91 c 0.622,0.411 1.403,0.918 1.512,2.536 0.149,2.25 -0.289,4.14 -0.488,4.863 l -8,-0.656 1.75,2.726 -8.063,7.387 2.442,0.742 -1.41,5.363 5.16,-1.074 0.969,2.664 3.011,-3.301 -0.871,8.532 3.16,-2.535 3.41,6.421 3.399,-6.421 3.16,2.535 -0.867,-8.532 3.008,3.301 0.968,-2.664 5.161,1.074 -1.411,-5.363 2.442,-0.742 -8.059,-7.387 z M 731.219,110.762 C 728.738,83.3359 699.25,31.0547 645.25,14.8789 591.262,31.0547 561.672,83.3359 559.191,110.762 V 190.52 H 645 h 0.41 85.809 v -79.758"
         style="fill:#46505c;fill-opacity:1;fill-rule:nonzero;stroke:none"
         id="path110" />
      <path
         d="m 600.648,216.039 1.411,5.363 -5.161,-1.074 -0.968,2.664 -3.008,-3.301 0.867,8.532 -3.16,-2.535 -3.399,6.421 -3.41,-6.421 -3.16,2.535 0.871,-8.532 -3.011,3.301 -0.969,-2.664 -5.16,1.074 1.41,-5.363 -2.442,-0.742 8.063,-7.387 -1.75,-2.726 8,0.656 c 0.199,-0.723 0.637,-2.613 0.488,-4.863 -0.109,-1.618 -0.89,-2.125 -1.512,-2.536 l -1.32,-0.91 h 7.801 l -1.34,0.922 c -0.641,0.41 -1.43,0.926 -1.488,2.512 -0.09,2.25 0.308,4.14 0.488,4.875 l 7.992,-0.656 -1.75,2.726 8.071,7.387 -2.454,0.742"
         style="fill:#fab93f;fill-opacity:1;fill-rule:nonzero;stroke:none"
         id="path112" />
      <path
         d="m 694.93,207.91 -1.75,-2.726 7.992,0.656 c 0.18,-0.735 0.59,-2.625 0.5,-4.871 -0.07,-1.59 -0.863,-2.106 -1.492,-2.516 l -1.34,-0.922 h 7.801 l -1.321,0.907 c -0.629,0.41 -1.398,0.921 -1.511,2.539 -0.149,2.25 0.293,4.14 0.492,4.863 l 7.988,-0.656 -1.75,2.726 8.07,7.387 -2.449,0.742 1.418,5.363 -5.156,-1.074 -0.981,2.66 -3.011,-3.3 0.871,8.535 -3.16,-2.535 -3.403,6.421 -3.398,-6.421 -3.168,2.535 0.879,-8.535 -3.012,3.3 -0.98,-2.66 -5.161,1.074 1.422,-5.363 -2.449,-0.742 8.059,-7.387"
         style="fill:#fab93f;fill-opacity:1;fill-rule:nonzero;stroke:none"
         id="path114" />
      <path
         d="m 645.578,200.594 c 3.262,0 5.031,-3.61 5.051,-3.645 l 0.109,-0.238 h 25.371 v 28.426 h -5.05 v -24.184 l -0.418,-0.004 c -0.313,-0.004 -7.59,-0.078 -9.141,0.102 -0.98,0.109 -2.461,0.664 -4.172,1.304 -3.18,1.184 -7.308,2.715 -9.93,2.012 -0.16,-0.043 -0.308,-0.09 -0.457,-0.148 -0.203,-0.082 -0.371,-0.219 -0.55,-0.336 -0.082,-0.051 -0.153,-0.098 -0.219,-0.149 -0.094,-0.074 -0.223,-0.117 -0.301,-0.207 l -0.301,-0.308 -0.3,0.308 c -0.321,0.321 -0.7,0.539 -1.122,0.703 -0.136,0.051 -0.277,0.09 -0.418,0.129 -2.621,0.707 -6.75,-0.816 -9.929,-2.004 -1.711,-0.64 -3.192,-1.195 -4.172,-1.304 -0.828,-0.098 -3.32,-0.117 -5.488,-0.121 -1.871,0 -3.512,0.019 -3.653,0.019 l -0.418,0.004 v 24.184 h -5.05 v -28.426 h 25.359 l 0.121,0.234 c 0.02,0.039 1.801,3.621 5.031,3.649 0.02,0 0.028,0 0.047,0"
         style="fill:#740232;fill-opacity:1;fill-rule:nonzero;stroke:none"
         id="path116" />
      <path
         d="m 645.57,225.371 1.828,2.246 v 3.11 c -0.148,-0.086 -0.296,-0.18 -0.437,-0.278 -0.512,-0.355 -0.992,-0.754 -1.391,-1.25 -0.308,0.379 -0.648,0.711 -1.019,1.004 -0.02,0.02 -0.051,0.035 -0.071,0.055 -0.101,0.082 -0.23,0.133 -0.332,0.211 -0.136,0.09 -0.277,0.176 -0.418,0.258 v -3.11 l 1.84,-2.246"
         style="fill:#740232;fill-opacity:1;fill-rule:nonzero;stroke:none"
         id="path118" />
      <path
         d="m 646.039,206.465 c -0.168,-0.07 -0.328,-0.149 -0.461,-0.227 -0.18,0.09 -0.359,0.172 -0.547,0.246 -0.41,0.157 -0.84,0.274 -1.301,0.356 v -2.481 c 0.141,-0.039 0.282,-0.078 0.418,-0.129 0.422,-0.167 0.801,-0.382 1.122,-0.703 l 0.3,-0.304 0.301,0.304 c 0.09,0.09 0.207,0.133 0.301,0.207 0.066,0.051 0.137,0.094 0.219,0.149 0.179,0.117 0.347,0.25 0.55,0.336 0.149,0.058 0.297,0.105 0.457,0.148 v 2.477 c -0.488,-0.086 -0.937,-0.211 -1.359,-0.379"
         style="fill:#740232;fill-opacity:1;fill-rule:nonzero;stroke:none"
         id="path120" />
      <path
         d="m 666.949,229.344 c -0.058,0.004 -5.308,-0.219 -7.961,0.824 -4.976,1.969 -8.91,2.129 -11.59,0.559 v -3.11 -2.48 -18.293 -2.477 c 2.622,0.703 6.75,-0.824 9.93,-2.012 1.711,-0.64 3.192,-1.191 4.172,-1.304 1.551,-0.18 8.828,-0.106 9.141,-0.102 l 0.418,0.004 v 24.184 4.195 l -4.11,0.012"
         style="fill:#fab93f;fill-opacity:1;fill-rule:nonzero;stroke:none"
         id="path122" />
      <path
         d="m 645.578,206.238 c 0.133,0.078 0.293,0.157 0.461,0.227 0.422,0.168 0.871,0.293 1.359,0.379 v 18.289 2.484 l -1.828,-2.25 -1.84,2.25 v -2.484 -18.293 c 0.461,-0.082 0.891,-0.199 1.301,-0.356 0.188,-0.078 0.367,-0.156 0.547,-0.246"
         style="fill:#740232;fill-opacity:1;fill-rule:nonzero;stroke:none"
         id="path124" />
      <path
         d="m 632.141,230.168 c -2.653,-1.043 -7.903,-0.824 -7.981,-0.82 l -4.09,-0.016 v -4.195 -24.184 l 0.418,-0.004 c 0.141,0 1.782,-0.019 3.653,-0.019 2.168,0.004 4.66,0.023 5.488,0.121 0.98,0.109 2.461,0.664 4.172,1.304 3.179,1.188 7.308,2.711 9.929,2.004 v 2.481 18.297 2.48 3.11 c -2.679,1.57 -6.601,1.41 -11.589,-0.559"
         style="fill:#fab93f;fill-opacity:1;fill-rule:nonzero;stroke:none"
         id="path126" />
      <path
         d="m 867.996,0 h -5 v 426.965 h 5 V 0"
         style="fill:#46505c;fill-opacity:1;fill-rule:nonzero;stroke:none"
         id="path128" />
      <path
         d="m 867.996,97.1016 h -5 V 427.004 h 5 V 97.1016"
         style="fill:#46505c;fill-opacity:1;fill-rule:nonzero;stroke:none"
         id="path130" />
      <path
         d="m 1324.56,355.031 c 3.44,5.86 8.1,10.434 13.99,13.723 5.9,3.293 12.36,4.937 19.37,4.937 8.03,0 15.18,-1.968 21.44,-5.914 6.25,-3.937 10.79,-9.531 13.61,-16.761 h -14.86 c -1.96,3.98 -4.67,6.945 -8.14,8.898 -3.48,1.953 -7.49,2.93 -12.05,2.93 -4.99,0 -9.43,-1.121 -13.34,-3.36 -3.91,-2.246 -6.96,-5.464 -9.17,-9.66 -2.21,-4.195 -3.31,-9.078 -3.31,-14.648 0,-5.571 1.1,-10.453 3.31,-14.649 2.21,-4.195 5.26,-7.429 9.17,-9.711 3.91,-2.277 8.35,-3.414 13.34,-3.414 4.56,0 8.57,0.977 12.05,2.926 3.47,1.953 6.18,4.922 8.14,8.902 h 14.86 c -2.82,-7.238 -7.36,-12.804 -13.61,-16.71 -6.26,-3.907 -13.41,-5.86 -21.44,-5.86 -7.09,0 -13.56,1.641 -19.41,4.938 -5.86,3.289 -10.51,7.867 -13.95,13.722 -3.44,5.864 -5.16,12.477 -5.16,19.856 0,7.379 1.72,14 5.16,19.855"
         style="fill:#46505c;fill-opacity:1;fill-rule:nonzero;stroke:none"
         id="path132" />
      <path
         d="m 1448.53,332.574 c -0.08,4.555 -1.7,8.207 -4.89,10.957 -3.18,2.75 -7.13,4.121 -11.82,4.121 -4.27,0 -7.92,-1.351 -10.96,-4.066 -3.04,-2.711 -4.85,-6.383 -5.43,-11.012 z m 12.48,-9.984 h -45.69 c 0.36,-4.774 2.14,-8.61 5.32,-11.5 3.18,-2.899 7.08,-4.344 11.71,-4.344 6.66,0 11.36,2.785 14.11,8.356 h 13.34 c -1.8,-5.497 -5.07,-10 -9.81,-13.504 -4.74,-3.512 -10.61,-5.266 -17.64,-5.266 -5.71,0 -10.83,1.285 -15.35,3.856 -4.52,2.566 -8.06,6.179 -10.62,10.847 -2.57,4.664 -3.86,10.074 -3.86,16.223 0,6.144 1.25,11.551 3.74,16.219 2.5,4.664 6.01,8.261 10.53,10.796 4.52,2.528 9.7,3.797 15.56,3.797 5.65,0 10.68,-1.23 15.09,-3.691 4.41,-2.461 7.84,-5.91 10.3,-10.359 2.47,-4.45 3.7,-9.567 3.7,-15.352 0,-2.246 -0.15,-4.27 -0.43,-6.078"
         style="fill:#46505c;fill-opacity:1;fill-rule:nonzero;stroke:none"
         id="path134" />
      <path
         d="m 1515.63,355.141 c 3.73,-1.953 6.64,-4.848 8.74,-8.68 2.09,-3.832 3.14,-8.461 3.14,-13.887 v -35.265 h -12.27 v 33.418 c 0,5.351 -1.33,9.461 -4.01,12.316 -2.68,2.855 -6.33,4.285 -10.96,4.285 -4.63,0 -8.3,-1.43 -11,-4.285 -2.72,-2.855 -4.07,-6.965 -4.07,-12.316 v -33.418 h -12.38 v 59.785 h 12.38 v -6.836 c 2.02,2.457 4.6,4.375 7.75,5.75 3.14,1.375 6.49,2.062 10.04,2.062 4.7,0 8.91,-0.976 12.64,-2.929"
         style="fill:#46505c;fill-opacity:1;fill-rule:nonzero;stroke:none"
         id="path136" />
      <path
         d="M 1556.9,347.004 V 313.91 c 0,-2.246 0.53,-3.851 1.58,-4.828 1.04,-0.977 2.84,-1.465 5.37,-1.465 h 7.6 v -10.308 h -9.77 c -5.58,0 -9.84,1.304 -12.8,3.906 -2.97,2.601 -4.46,6.836 -4.46,12.695 v 33.094 h -7.05 v 10.09 h 7.05 v 14.863 h 12.48 v -14.863 h 14.55 v -10.09 h -14.55"
         style="fill:#46505c;fill-opacity:1;fill-rule:nonzero;stroke:none"
         id="path138" />
      <path
         d="m 1601.67,355.52 c 3,1.699 6.56,2.55 10.68,2.55 v -12.8 h -3.14 c -4.84,0 -8.52,-1.231 -11.02,-3.692 -2.49,-2.461 -3.74,-6.73 -3.74,-12.805 v -31.464 h -12.37 v 59.785 h 12.37 v -8.68 c 1.81,3.035 4.21,5.406 7.22,7.106"
         style="fill:#46505c;fill-opacity:1;fill-rule:nonzero;stroke:none"
         id="path140" />
      <path
         d="m 1664.86,332.574 c -0.07,4.555 -1.7,8.207 -4.88,10.957 -3.18,2.75 -7.13,4.121 -11.83,4.121 -4.26,0 -7.92,-1.351 -10.95,-4.066 -3.04,-2.711 -4.86,-6.383 -5.43,-11.012 z m 12.48,-9.984 h -45.68 c 0.36,-4.774 2.14,-8.61 5.32,-11.5 3.18,-2.899 7.08,-4.344 11.71,-4.344 6.66,0 11.36,2.785 14.11,8.356 h 13.34 c -1.8,-5.497 -5.08,-10 -9.81,-13.504 -4.74,-3.512 -10.62,-5.266 -17.64,-5.266 -5.71,0 -10.83,1.285 -15.35,3.856 -4.52,2.566 -8.07,6.179 -10.63,10.847 -2.56,4.664 -3.85,10.074 -3.85,16.223 0,6.144 1.25,11.551 3.74,16.219 2.5,4.664 6,8.261 10.53,10.796 4.52,2.528 9.7,3.797 15.56,3.797 5.65,0 10.68,-1.23 15.09,-3.691 4.4,-2.461 7.84,-5.91 10.3,-10.359 2.46,-4.45 3.69,-9.567 3.69,-15.352 0,-2.246 -0.14,-4.27 -0.43,-6.078"
         style="fill:#46505c;fill-opacity:1;fill-rule:nonzero;stroke:none"
         id="path142" />
      <path
         d="m 1741.68,347.004 h -11.06 v -49.695 h -12.49 v 49.695 h -7.05 v 10.09 h 7.05 v 4.23 c 0,6.871 1.83,11.879 5.48,15.028 3.66,3.144 9.39,4.718 17.2,4.718 v -10.308 c -3.76,0 -6.41,-0.703 -7.92,-2.114 -1.52,-1.41 -2.27,-3.851 -2.27,-7.324 v -4.23 h 11.06 v -10.09"
         style="fill:#46505c;fill-opacity:1;fill-rule:nonzero;stroke:none"
         id="path144" />
      <path
         d="m 1786.76,309.355 c 2.78,1.52 5.05,3.793 6.79,6.833 1.72,3.042 2.59,6.726 2.59,11.07 0,4.34 -0.83,8.008 -2.49,11.008 -1.67,3.004 -3.87,5.265 -6.62,6.785 -2.75,1.515 -5.71,2.277 -8.9,2.277 -3.18,0 -6.13,-0.762 -8.84,-2.277 -2.71,-1.52 -4.87,-3.781 -6.46,-6.785 -1.59,-3 -2.38,-6.668 -2.38,-11.008 0,-6.442 1.64,-11.414 4.94,-14.918 3.28,-3.512 7.43,-5.266 12.42,-5.266 3.19,0 6.16,0.758 8.95,2.281 z m -24.25,-9.167 c -4.56,2.566 -8.13,6.179 -10.74,10.847 -2.6,4.664 -3.91,10.074 -3.91,16.223 0,6.074 1.34,11.465 4.02,16.164 2.67,4.703 6.32,8.316 10.95,10.851 4.63,2.528 9.81,3.797 15.52,3.797 5.71,0 10.89,-1.269 15.52,-3.797 4.63,-2.535 8.28,-6.148 10.95,-10.851 2.68,-4.699 4.02,-10.09 4.02,-16.164 0,-6.074 -1.38,-11.469 -4.12,-16.168 -2.76,-4.703 -6.5,-8.336 -11.23,-10.902 -4.74,-2.571 -9.96,-3.856 -15.68,-3.856 -5.64,0 -10.74,1.285 -15.3,3.856"
         style="fill:#46505c;fill-opacity:1;fill-rule:nonzero;stroke:none"
         id="path146" />
      <path
         d="m 1839.92,355.52 c 3,1.699 6.56,2.55 10.69,2.55 v -12.8 h -3.15 c -4.84,0 -8.51,-1.231 -11.01,-3.692 -2.49,-2.461 -3.74,-6.73 -3.74,-12.805 v -31.464 h -12.38 v 59.785 h 12.38 v -8.68 c 1.8,3.035 4.2,5.406 7.21,7.106"
         style="fill:#46505c;fill-opacity:1;fill-rule:nonzero;stroke:none"
         id="path148" />
      <path
         d="m 1899.87,299.211 c -4.05,1.769 -7.23,4.285 -9.55,7.535 -2.31,3.258 -3.47,7.059 -3.47,11.395 h 13.24 c 0.28,-3.254 1.57,-5.93 3.85,-8.028 2.28,-2.101 5.47,-3.144 9.61,-3.144 4.26,0 7.58,1.027 9.98,3.09 2.38,2.058 3.57,4.722 3.57,7.972 0,2.535 -0.74,4.598 -2.22,6.188 -1.48,1.586 -3.33,2.816 -5.53,3.687 -2.21,0.867 -5.27,1.805 -9.17,2.821 -4.93,1.304 -8.92,2.625 -12,3.961 -3.06,1.339 -5.69,3.417 -7.86,6.242 -2.17,2.82 -3.25,6.582 -3.25,11.281 0,4.344 1.08,8.137 3.25,11.394 2.17,3.254 5.21,5.75 9.11,7.485 3.91,1.738 8.43,2.601 13.57,2.601 7.3,0 13.29,-1.824 17.96,-5.476 4.67,-3.652 7.24,-8.664 7.75,-15.027 h -13.67 c -0.22,2.75 -1.51,5.097 -3.91,7.05 -2.38,1.953 -5.52,2.93 -9.43,2.93 -3.55,0 -6.45,-0.902 -8.68,-2.707 -2.25,-1.813 -3.37,-4.414 -3.37,-7.813 0,-2.32 0.71,-4.218 2.12,-5.699 1.41,-1.484 3.2,-2.656 5.37,-3.527 2.17,-0.867 5.14,-1.809 8.9,-2.82 4.99,-1.372 9.06,-2.75 12.2,-4.122 3.15,-1.378 5.82,-3.492 8.03,-6.347 2.21,-2.863 3.31,-6.676 3.31,-11.449 0,-3.836 -1.03,-7.45 -3.1,-10.852 -2.06,-3.398 -5.05,-6.129 -9,-8.187 -3.94,-2.063 -8.58,-3.098 -13.93,-3.098 -5.07,0 -9.63,0.891 -13.68,2.664"
         style="fill:#46505c;fill-opacity:1;fill-rule:nonzero;stroke:none"
         id="path150" />
      <path
         d="m 1988.35,309.355 c 2.78,1.52 5.05,3.793 6.79,6.833 1.73,3.042 2.59,6.726 2.59,11.07 0,4.34 -0.83,8.008 -2.49,11.008 -1.67,3.004 -3.87,5.265 -6.62,6.785 -2.75,1.515 -5.71,2.277 -8.89,2.277 -3.19,0 -6.14,-0.762 -8.85,-2.277 -2.71,-1.52 -4.86,-3.781 -6.46,-6.785 -1.59,-3 -2.38,-6.668 -2.38,-11.008 0,-6.442 1.64,-11.414 4.94,-14.918 3.28,-3.512 7.43,-5.266 12.42,-5.266 3.19,0 6.17,0.758 8.95,2.281 z m -24.25,-9.167 c -4.56,2.566 -8.13,6.179 -10.74,10.847 -2.6,4.664 -3.91,10.074 -3.91,16.223 0,6.074 1.34,11.465 4.02,16.164 2.67,4.703 6.33,8.316 10.95,10.851 4.63,2.528 9.81,3.797 15.52,3.797 5.71,0 10.89,-1.269 15.52,-3.797 4.63,-2.535 8.28,-6.148 10.96,-10.851 2.67,-4.699 4.01,-10.09 4.01,-16.164 0,-6.074 -1.38,-11.469 -4.12,-16.168 -2.76,-4.703 -6.5,-8.336 -11.23,-10.902 -4.74,-2.571 -9.96,-3.856 -15.68,-3.856 -5.64,0 -10.74,1.285 -15.3,3.856"
         style="fill:#46505c;fill-opacity:1;fill-rule:nonzero;stroke:none"
         id="path152" />
      <path
         d="m 2051.64,347.004 h -11.06 v -49.695 h -12.48 v 49.695 h -7.05 v 10.09 h 7.05 v 4.23 c 0,6.871 1.82,11.879 5.47,15.028 3.66,3.144 9.39,4.718 17.2,4.718 v -10.308 c -3.76,0 -6.4,-0.703 -7.92,-2.114 -1.52,-1.41 -2.27,-3.851 -2.27,-7.324 v -4.23 h 11.06 v -10.09"
         style="fill:#46505c;fill-opacity:1;fill-rule:nonzero;stroke:none"
         id="path154" />
      <path
         d="M 2078.76,347.004 V 313.91 c 0,-2.246 0.53,-3.851 1.57,-4.828 1.05,-0.977 2.84,-1.465 5.37,-1.465 h 7.6 v -10.308 h -9.76 c -5.58,0 -9.85,1.304 -12.81,3.906 -2.97,2.601 -4.45,6.836 -4.45,12.695 v 33.094 h -7.05 v 10.09 h 7.05 v 14.863 h 12.48 v -14.863 h 14.54 v -10.09 h -14.54"
         style="fill:#46505c;fill-opacity:1;fill-rule:nonzero;stroke:none"
         id="path156" />
      <path
         d="m 2187.33,357.094 -18.55,-59.785 h -13.02 l -12.04,44.16 -12.05,-44.16 h -13.02 l -18.66,59.785 h 12.59 l 12.48,-48.067 12.69,48.067 h 12.91 l 12.15,-47.852 12.38,47.852 h 12.14"
         style="fill:#46505c;fill-opacity:1;fill-rule:nonzero;stroke:none"
         id="path158" />
      <path
         d="m 2237.84,338 c -1.7,3.035 -3.92,5.352 -6.68,6.941 -2.74,1.594 -5.71,2.387 -8.89,2.387 -3.19,0 -6.15,-0.781 -8.9,-2.332 -2.74,-1.558 -4.97,-3.832 -6.67,-6.836 -1.7,-3.004 -2.55,-6.562 -2.55,-10.687 0,-4.121 0.85,-7.743 2.55,-10.852 1.7,-3.109 3.94,-5.476 6.73,-7.105 2.78,-1.625 5.73,-2.442 8.84,-2.442 3.18,0 6.15,0.797 8.89,2.391 2.76,1.586 4.98,3.918 6.68,6.996 1.7,3.07 2.55,6.676 2.55,10.797 0,4.121 -0.85,7.703 -2.55,10.742 z m -42.64,5.422 c 2.5,4.629 5.89,8.23 10.2,10.797 4.3,2.562 9.05,3.851 14.27,3.851 4.7,0 8.8,-0.922 12.31,-2.765 3.51,-1.848 6.31,-4.141 8.41,-6.891 v 8.68 h 12.48 v -59.785 h -12.48 v 8.898 c -2.1,-2.824 -4.96,-5.172 -8.57,-7.051 -3.62,-1.883 -7.75,-2.824 -12.37,-2.824 -5.13,0 -9.84,1.32 -14.11,3.961 -4.27,2.641 -7.64,6.328 -10.14,11.07 -2.49,4.735 -3.74,10.106 -3.74,16.11 0,6.004 1.25,11.32 3.74,15.949"
         style="fill:#46505c;fill-opacity:1;fill-rule:nonzero;stroke:none"
         id="path160" />
      <path
         d="m 2287.75,355.52 c 3,1.699 6.57,2.55 10.69,2.55 v -12.8 h -3.15 c -4.84,0 -8.51,-1.231 -11.01,-3.692 -2.49,-2.461 -3.74,-6.73 -3.74,-12.805 v -31.464 h -12.38 v 59.785 h 12.38 v -8.68 c 1.8,3.035 4.21,5.406 7.21,7.106"
         style="fill:#46505c;fill-opacity:1;fill-rule:nonzero;stroke:none"
         id="path162" />
      <path
         d="m 2350.73,332.574 c -0.08,4.555 -1.7,8.207 -4.88,10.957 -3.18,2.75 -7.13,4.121 -11.83,4.121 -4.26,0 -7.92,-1.351 -10.95,-4.066 -3.04,-2.711 -4.86,-6.383 -5.43,-11.012 z m 12.48,-9.984 h -45.68 c 0.36,-4.774 2.14,-8.61 5.32,-11.5 3.18,-2.899 7.08,-4.344 11.71,-4.344 6.66,0 11.36,2.785 14.11,8.356 h 13.34 c -1.8,-5.497 -5.08,-10 -9.81,-13.504 -4.74,-3.512 -10.62,-5.266 -17.64,-5.266 -5.71,0 -10.83,1.285 -15.35,3.856 -4.52,2.566 -8.07,6.179 -10.63,10.847 -2.56,4.664 -3.85,10.074 -3.85,16.223 0,6.144 1.25,11.551 3.74,16.219 2.5,4.664 6,8.261 10.52,10.796 4.53,2.528 9.71,3.797 15.57,3.797 5.65,0 10.67,-1.23 15.09,-3.691 4.4,-2.461 7.84,-5.91 10.3,-10.359 2.46,-4.45 3.69,-9.567 3.69,-15.352 0,-2.246 -0.14,-4.27 -0.43,-6.078"
         style="fill:#46505c;fill-opacity:1;fill-rule:nonzero;stroke:none"
         id="path164" />
      <path
         d="m 1324.56,224.797 c 3.44,5.855 8.1,10.433 13.99,13.723 5.9,3.293 12.36,4.937 19.37,4.937 8.03,0 15.18,-1.969 21.44,-5.914 6.25,-3.938 10.79,-9.531 13.61,-16.762 h -14.86 c -1.96,3.981 -4.67,6.946 -8.14,8.899 -3.48,1.953 -7.49,2.925 -12.05,2.925 -4.99,0 -9.43,-1.117 -13.34,-3.359 -3.91,-2.242 -6.96,-5.461 -9.17,-9.656 -2.21,-4.192 -3.31,-9.07 -3.31,-14.649 0,-5.566 1.1,-10.449 3.31,-14.648 2.21,-4.188 5.26,-7.434 9.17,-9.707 3.91,-2.273 8.35,-3.418 13.34,-3.418 4.56,0 8.57,0.977 12.05,2.93 3.47,1.953 6.18,4.922 8.14,8.894 h 14.86 c -2.82,-7.234 -7.36,-12.801 -13.61,-16.707 -6.26,-3.906 -13.41,-5.859 -21.44,-5.859 -7.09,0 -13.56,1.64 -19.41,4.941 -5.86,3.289 -10.51,7.863 -13.95,13.723 -3.44,5.855 -5.16,12.476 -5.16,19.851 0,7.383 1.72,14 5.16,19.856"
         style="fill:#46505c;fill-opacity:1;fill-rule:nonzero;stroke:none"
         id="path166" />
      <path
         d="m 1448.53,202.344 c -0.08,4.551 -1.7,8.203 -4.89,10.957 -3.18,2.746 -7.13,4.117 -11.82,4.117 -4.27,0 -7.92,-1.355 -10.96,-4.066 -3.04,-2.707 -4.85,-6.379 -5.43,-11.008 z m 12.48,-9.989 h -45.69 c 0.36,-4.765 2.14,-8.605 5.32,-11.496 3.18,-2.898 7.08,-4.343 11.71,-4.343 6.66,0 11.36,2.781 14.11,8.355 h 13.34 c -1.8,-5.496 -5.07,-10 -9.81,-13.504 -4.74,-3.515 -10.61,-5.262 -17.64,-5.262 -5.71,0 -10.83,1.278 -15.35,3.844 -4.52,2.571 -8.06,6.184 -10.62,10.852 -2.57,4.668 -3.86,10.078 -3.86,16.222 0,6.153 1.25,11.551 3.74,16.219 2.5,4.664 6.01,8.262 10.53,10.797 4.52,2.527 9.7,3.797 15.56,3.797 5.65,0 10.68,-1.231 15.09,-3.691 4.41,-2.461 7.84,-5.915 10.3,-10.356 2.47,-4.453 3.7,-9.57 3.7,-15.351 0,-2.247 -0.15,-4.266 -0.43,-6.083"
         style="fill:#46505c;fill-opacity:1;fill-rule:nonzero;stroke:none"
         id="path168" />
      <path
         d="m 1493.35,225.281 c 3,1.699 6.56,2.555 10.68,2.555 v -12.797 h -3.14 c -4.84,0 -8.52,-1.23 -11.02,-3.691 -2.49,-2.461 -3.74,-6.731 -3.74,-12.801 v -31.469 h -12.37 v 59.781 h 12.37 v -8.679 c 1.81,3.035 4.21,5.406 7.22,7.101"
         style="fill:#46505c;fill-opacity:1;fill-rule:nonzero;stroke:none"
         id="path170" />
      <path
         d="m 1531.38,216.77 v -33.086 c 0,-2.246 0.52,-3.86 1.57,-4.836 1.04,-0.977 2.84,-1.465 5.37,-1.465 h 7.6 v -10.305 h -9.77 c -5.57,0 -9.84,1.301 -12.8,3.906 -2.97,2.602 -4.45,6.836 -4.45,12.7 v 33.086 h -7.05 v 10.089 h 7.05 v 14.864 h 12.48 v -14.864 h 14.54 V 216.77 h -14.54"
         style="fill:#46505c;fill-opacity:1;fill-rule:nonzero;stroke:none"
         id="path172" />
      <path
         d="m 1568.55,226.859 v -59.781 h -12.37 v 59.781 z m -11.71,10.196 c -1.53,1.523 -2.28,3.406 -2.28,5.644 0,2.242 0.75,4.121 2.28,5.641 1.51,1.519 3.39,2.281 5.64,2.281 2.17,0 4.01,-0.762 5.53,-2.281 1.52,-1.52 2.28,-3.399 2.28,-5.641 0,-2.238 -0.76,-4.121 -2.28,-5.644 -1.52,-1.52 -3.36,-2.274 -5.53,-2.274 -2.25,0 -4.13,0.754 -5.64,2.274"
         style="fill:#46505c;fill-opacity:1;fill-rule:nonzero;stroke:none"
         id="path174" />
      <path
         d="m 1621.61,237.055 c -1.52,1.523 -2.28,3.406 -2.28,5.644 0,2.242 0.76,4.121 2.28,5.641 1.52,1.519 3.36,2.281 5.53,2.281 2.24,0 4.12,-0.762 5.64,-2.281 1.53,-1.52 2.28,-3.399 2.28,-5.641 0,-2.238 -0.75,-4.121 -2.28,-5.644 -1.52,-1.52 -3.4,-2.274 -5.64,-2.274 -2.17,0 -4.01,0.754 -5.53,2.274 z m -22.67,-10.196 h 34.39 v -59.781 h -12.37 v 49.692 h -22.02 v -49.692 h -12.48 v 49.692 h -7.06 v 10.089 h 7.06 v 4.231 c 0,6.871 1.82,11.879 5.47,15.027 3.66,3.145 9.39,4.719 17.2,4.719 v -10.309 c -3.76,0 -6.41,-0.703 -7.92,-2.113 -1.52,-1.41 -2.27,-3.851 -2.27,-7.324 v -4.231"
         style="fill:#46505c;fill-opacity:1;fill-rule:nonzero;stroke:none"
         id="path176" />
      <path
         d="m 1649.08,213.242 c 2.5,4.664 5.96,8.262 10.36,10.797 4.42,2.527 9.49,3.797 15.2,3.797 7.23,0 13.21,-1.719 17.96,-5.156 4.73,-3.438 7.93,-8.332 9.6,-14.7 h -13.35 c -1.09,2.965 -2.82,5.282 -5.21,6.942 -2.38,1.672 -5.39,2.496 -9,2.496 -5.07,0 -9.1,-1.781 -12.1,-5.367 -3,-3.582 -4.5,-8.594 -4.5,-15.028 0,-6.437 1.5,-11.464 4.5,-15.082 3,-3.621 7.03,-5.425 12.1,-5.425 7.16,0 11.89,3.152 14.21,9.441 h 13.35 c -1.74,-6.074 -4.99,-10.906 -9.77,-14.48 -4.77,-3.586 -10.7,-5.372 -17.79,-5.372 -5.71,0 -10.78,1.278 -15.2,3.844 -4.4,2.571 -7.86,6.184 -10.36,10.852 -2.49,4.668 -3.74,10.078 -3.74,16.222 0,6.153 1.25,11.551 3.74,16.219"
         style="fill:#46505c;fill-opacity:1;fill-rule:nonzero;stroke:none"
         id="path178" />
      <path
         d="m 1756.93,207.766 c -1.7,3.035 -3.92,5.347 -6.68,6.941 -2.74,1.594 -5.71,2.387 -8.89,2.387 -3.19,0 -6.15,-0.778 -8.9,-2.328 -2.74,-1.563 -4.97,-3.836 -6.67,-6.836 -1.7,-3.008 -2.55,-6.563 -2.55,-10.696 0,-4.121 0.85,-7.73 2.55,-10.847 1.7,-3.106 3.95,-5.481 6.73,-7.102 2.78,-1.629 5.73,-2.437 8.84,-2.437 3.18,0 6.15,0.789 8.89,2.382 2.76,1.59 4.98,3.922 6.68,7 1.7,3.067 2.55,6.668 2.55,10.793 0,4.122 -0.85,7.704 -2.55,10.743 z m -42.64,5.425 c 2.5,4.625 5.9,8.223 10.2,10.793 4.3,2.563 9.06,3.852 14.27,3.852 4.7,0 8.8,-0.922 12.31,-2.77 3.51,-1.843 6.31,-4.136 8.41,-6.886 v 8.679 h 12.48 v -59.781 h -12.48 v 8.899 c -2.1,-2.825 -4.96,-5.176 -8.57,-7.051 -3.61,-1.887 -7.75,-2.821 -12.36,-2.821 -5.14,0 -9.85,1.317 -14.12,3.954 -4.26,2.644 -7.64,6.328 -10.14,11.074 -2.49,4.734 -3.74,10.105 -3.74,16.101 0,6.008 1.25,11.329 3.74,15.957"
         style="fill:#46505c;fill-opacity:1;fill-rule:nonzero;stroke:none"
         id="path180" />
      <path
         d="m 1802.49,216.77 v -33.086 c 0,-2.246 0.53,-3.86 1.57,-4.836 1.05,-0.977 2.84,-1.465 5.37,-1.465 h 7.6 v -10.305 h -9.76 c -5.58,0 -9.85,1.301 -12.81,3.906 -2.97,2.602 -4.45,6.836 -4.45,12.7 v 33.086 h -7.05 v 10.089 h 7.05 v 14.864 h 12.48 v -14.864 h 14.54 V 216.77 h -14.54"
         style="fill:#46505c;fill-opacity:1;fill-rule:nonzero;stroke:none"
         id="path182" />
      <path
         d="m 1839.71,226.859 v -59.781 h -12.38 v 59.781 z m -11.72,10.196 c -1.53,1.523 -2.28,3.406 -2.28,5.644 0,2.242 0.75,4.121 2.28,5.641 1.51,1.519 3.4,2.281 5.64,2.281 2.17,0 4.02,-0.762 5.53,-2.281 1.52,-1.52 2.29,-3.399 2.29,-5.641 0,-2.238 -0.77,-4.121 -2.29,-5.644 -1.51,-1.52 -3.36,-2.274 -5.53,-2.274 -2.24,0 -4.13,0.754 -5.64,2.274"
         style="fill:#46505c;fill-opacity:1;fill-rule:nonzero;stroke:none"
         id="path184" />
      <path
         d="m 1890.83,179.121 c 2.78,1.524 5.05,3.801 6.79,6.836 1.73,3.035 2.59,6.731 2.59,11.066 0,4.344 -0.83,8.004 -2.49,11.012 -1.67,3 -3.87,5.266 -6.62,6.778 -2.75,1.527 -5.71,2.281 -8.89,2.281 -3.19,0 -6.14,-0.754 -8.85,-2.281 -2.71,-1.512 -4.86,-3.778 -6.46,-6.778 -1.59,-3.008 -2.38,-6.668 -2.38,-11.012 0,-6.437 1.64,-11.41 4.94,-14.914 3.28,-3.515 7.43,-5.261 12.42,-5.261 3.19,0 6.17,0.75 8.95,2.273 z m -24.25,-9.172 c -4.56,2.571 -8.13,6.184 -10.74,10.852 -2.6,4.668 -3.91,10.078 -3.91,16.222 0,6.075 1.34,11.461 4.02,16.168 2.67,4.7 6.33,8.313 10.95,10.848 4.63,2.527 9.81,3.797 15.52,3.797 5.71,0 10.89,-1.27 15.52,-3.797 4.63,-2.535 8.28,-6.148 10.96,-10.848 2.67,-4.707 4.01,-10.093 4.01,-16.168 0,-6.078 -1.38,-11.464 -4.12,-16.164 -2.75,-4.707 -6.49,-8.339 -11.23,-10.91 -4.74,-2.566 -9.96,-3.844 -15.68,-3.844 -5.64,0 -10.74,1.278 -15.3,3.844"
         style="fill:#46505c;fill-opacity:1;fill-rule:nonzero;stroke:none"
         id="path186" />
      <path
         d="m 1968.08,224.906 c 3.73,-1.953 6.64,-4.847 8.74,-8.676 2.09,-3.835 3.14,-8.464 3.14,-13.886 v -35.266 h -12.26 v 33.418 c 0,5.356 -1.34,9.453 -4.02,12.317 -2.67,2.851 -6.33,4.281 -10.96,4.281 -4.62,0 -8.3,-1.43 -11,-4.281 -2.72,-2.864 -4.07,-6.961 -4.07,-12.317 v -33.418 h -12.38 v 59.781 h 12.38 v -6.836 c 2.02,2.457 4.61,4.375 7.75,5.75 3.15,1.375 6.49,2.063 10.04,2.063 4.7,0 8.92,-0.977 12.64,-2.93"
         style="fill:#46505c;fill-opacity:1;fill-rule:nonzero;stroke:none"
         id="path188" />
      <path
         d="m 2034.85,167.832 c -3.8,10.481 -5.69,21.731 -5.69,33.738 0,12.297 2.04,23.903 6.12,34.828 4.1,10.922 10.11,19.926 18.07,27.016 h 12.8 v -1.191 c -8.32,-7.672 -14.57,-16.856 -18.77,-27.559 -4.19,-10.711 -6.29,-21.734 -6.29,-33.094 0,-10.925 1.96,-21.48 5.86,-31.675 3.91,-10.207 9.58,-19.133 17.03,-26.809 v -1.191 h -12.8 c -7.09,6.804 -12.53,15.449 -16.33,25.937"
         style="fill:#46505c;fill-opacity:1;fill-rule:nonzero;stroke:none"
         id="path190" />
      <path
         d="m 2149.36,242.48 v -75.402 h -12.37 v 51.645 l -23.01,-51.645 h -8.57 l -23.11,51.645 v -51.645 h -12.37 v 75.402 h 13.35 l 26.48,-59.128 26.36,59.128 h 13.24"
         style="fill:#46505c;fill-opacity:1;fill-rule:nonzero;stroke:none"
         id="path192" />
      <path
         d="m 2166.22,213.242 c 2.5,4.664 5.96,8.262 10.36,10.797 4.42,2.527 9.48,3.797 15.2,3.797 7.22,0 13.21,-1.719 17.96,-5.156 4.73,-3.438 7.93,-8.332 9.6,-14.7 h -13.35 c -1.09,2.965 -2.83,5.282 -5.21,6.942 -2.38,1.672 -5.39,2.496 -9,2.496 -5.07,0 -9.1,-1.781 -12.1,-5.367 -3,-3.582 -4.5,-8.594 -4.5,-15.028 0,-6.437 1.5,-11.464 4.5,-15.082 3,-3.621 7.03,-5.425 12.1,-5.425 7.16,0 11.89,3.152 14.21,9.441 h 13.35 c -1.74,-6.074 -4.99,-10.906 -9.77,-14.48 -4.77,-3.586 -10.7,-5.372 -17.79,-5.372 -5.72,0 -10.78,1.278 -15.2,3.844 -4.4,2.571 -7.86,6.184 -10.36,10.852 -2.49,4.668 -3.74,10.078 -3.74,16.222 0,6.153 1.25,11.551 3.74,16.219"
         style="fill:#46505c;fill-opacity:1;fill-rule:nonzero;stroke:none"
         id="path194" />
      <path
         d="m 2242.36,168.977 c -4.05,1.777 -7.23,4.285 -9.55,7.539 -2.31,3.257 -3.47,7.058 -3.47,11.394 h 13.24 c 0.28,-3.254 1.57,-5.93 3.85,-8.027 2.28,-2.102 5.47,-3.145 9.61,-3.145 4.26,0 7.58,1.028 9.98,3.086 2.38,2.063 3.57,4.727 3.57,7.981 0,2.527 -0.74,4.59 -2.22,6.179 -1.48,1.59 -3.33,2.825 -5.53,3.692 -2.21,0.871 -5.27,1.804 -9.17,2.82 -4.93,1.301 -8.92,2.617 -12,3.957 -3.06,1.336 -5.69,3.418 -7.86,6.238 -2.17,2.825 -3.25,6.582 -3.25,11.286 0,4.339 1.08,8.136 3.25,11.39 2.17,3.258 5.21,5.754 9.11,7.488 3.91,1.739 8.43,2.602 13.57,2.602 7.3,0 13.29,-1.824 17.96,-5.477 4.67,-3.656 7.24,-8.664 7.75,-15.027 h -13.67 c -0.22,2.75 -1.51,5.098 -3.91,7.051 -2.38,1.953 -5.52,2.93 -9.43,2.93 -3.55,0 -6.45,-0.903 -8.68,-2.707 -2.25,-1.813 -3.37,-4.414 -3.37,-7.817 0,-2.316 0.71,-4.219 2.12,-5.691 1.41,-1.485 3.2,-2.656 5.37,-3.528 2.17,-0.867 5.14,-1.812 8.9,-2.82 4.99,-1.379 9.06,-2.754 12.2,-4.121 3.15,-1.379 5.82,-3.496 8.03,-6.348 2.21,-2.863 3.31,-6.679 3.31,-11.457 0,-3.828 -1.02,-7.437 -3.1,-10.847 -2.06,-3.399 -5.05,-6.121 -9,-8.184 -3.94,-2.059 -8.58,-3.098 -13.93,-3.098 -5.07,0 -9.63,0.891 -13.68,2.661"
         style="fill:#46505c;fill-opacity:1;fill-rule:nonzero;stroke:none"
         id="path196" />
      <path
         d="m 2297.42,224.797 c 3.44,5.855 8.1,10.433 14,13.723 5.89,3.293 12.35,4.937 19.36,4.937 8.03,0 15.18,-1.969 21.44,-5.914 6.25,-3.938 10.79,-9.531 13.61,-16.762 h -14.86 c -1.96,3.981 -4.67,6.946 -8.14,8.899 -3.47,1.953 -7.49,2.925 -12.05,2.925 -4.99,0 -9.43,-1.117 -13.34,-3.359 -3.9,-2.242 -6.96,-5.461 -9.17,-9.656 -2.21,-4.192 -3.31,-9.07 -3.31,-14.649 0,-5.566 1.1,-10.449 3.31,-14.648 2.21,-4.188 5.27,-7.434 9.17,-9.707 3.91,-2.273 8.35,-3.418 13.34,-3.418 4.56,0 8.58,0.977 12.05,2.93 3.47,1.953 6.18,4.922 8.14,8.894 h 14.86 c -2.82,-7.234 -7.36,-12.801 -13.61,-16.707 -6.26,-3.906 -13.41,-5.859 -21.44,-5.859 -7.09,0 -13.56,1.64 -19.41,4.941 -5.86,3.289 -10.51,7.863 -13.95,13.723 -3.44,5.855 -5.15,12.476 -5.15,19.851 0,7.383 1.71,14 5.15,19.856"
         style="fill:#46505c;fill-opacity:1;fill-rule:nonzero;stroke:none"
         id="path198" />
      <path
         d="m 2421.82,202.344 c -0.08,4.551 -1.7,8.203 -4.89,10.957 -3.18,2.746 -7.13,4.117 -11.82,4.117 -4.27,0 -7.92,-1.355 -10.96,-4.066 -3.04,-2.707 -4.85,-6.379 -5.43,-11.008 z m 12.48,-9.989 h -45.69 c 0.36,-4.765 2.14,-8.605 5.33,-11.496 3.17,-2.898 7.08,-4.343 11.7,-4.343 6.66,0 11.36,2.781 14.12,8.355 h 13.34 c -1.81,-5.496 -5.08,-10 -9.82,-13.504 -4.73,-3.515 -10.61,-5.262 -17.64,-5.262 -5.71,0 -10.83,1.278 -15.35,3.844 -4.52,2.571 -8.06,6.184 -10.62,10.852 -2.57,4.668 -3.86,10.078 -3.86,16.222 0,6.153 1.25,11.551 3.74,16.219 2.5,4.664 6.01,8.262 10.53,10.797 4.52,2.527 9.71,3.797 15.56,3.797 5.65,0 10.68,-1.231 15.09,-3.691 4.41,-2.461 7.84,-5.915 10.31,-10.356 2.46,-4.453 3.69,-9.57 3.69,-15.351 0,-2.247 -0.15,-4.266 -0.43,-6.083"
         style="fill:#46505c;fill-opacity:1;fill-rule:nonzero;stroke:none"
         id="path200" />
      <path
         d="m 2466.14,225.281 c 3,1.699 6.57,2.555 10.69,2.555 v -12.797 h -3.15 c -4.84,0 -8.51,-1.23 -11.01,-3.691 -2.49,-2.461 -3.74,-6.731 -3.74,-12.801 v -31.469 h -12.38 v 59.781 h 12.38 v -8.679 c 1.8,3.035 4.2,5.406 7.21,7.101"
         style="fill:#46505c;fill-opacity:1;fill-rule:nonzero;stroke:none"
         id="path202" />
      <path
         d="m 2503.74,216.77 v -33.086 c 0,-2.246 0.53,-3.86 1.57,-4.836 1.05,-0.977 2.84,-1.465 5.37,-1.465 h 7.6 v -10.305 h -9.76 c -5.58,0 -9.85,1.301 -12.81,3.906 -2.97,2.602 -4.45,6.836 -4.45,12.7 v 33.086 h -7.05 v 10.089 h 7.05 v 14.864 h 12.48 v -14.864 h 14.54 V 216.77 h -14.54"
         style="fill:#46505c;fill-opacity:1;fill-rule:nonzero;stroke:none"
         id="path204" />
      <path
         d="m 2520.72,141.895 v 1.191 c 7.45,7.676 13.14,16.602 17.04,26.809 3.9,10.195 5.85,20.75 5.85,31.675 0,11.36 -2.09,22.383 -6.29,33.094 -4.19,10.703 -10.44,19.887 -18.77,27.559 v 1.191 h 12.81 c 7.96,-7.09 13.97,-16.094 18.06,-27.016 4.09,-10.925 6.14,-22.531 6.14,-34.828 0,-12.007 -1.91,-23.257 -5.71,-33.738 -3.8,-10.488 -9.23,-19.133 -16.32,-25.937 h -12.81"
         style="fill:#46505c;fill-opacity:1;fill-rule:nonzero;stroke:none"
         id="path206" />
      <path
         d="m 1083.42,330.738 c 0.62,1.551 0.83,3.625 2.8,3.625 h 20 c 1.55,0 3.01,-0.308 3.01,-2.175 0,-2.075 -2.7,-1.758 -4.25,-1.864 -4.98,-0.312 -4.46,-4.461 -4.35,-8.504 l 1.13,-38.761 c 0.11,-1.969 0.21,-5.391 1.04,-7.254 0.83,-1.762 2.18,-2.071 3.94,-2.176 1.45,-0.106 4.04,-0.106 4.04,-2.18 0,-2.07 -2.28,-2.07 -3.73,-2.07 -5.18,0 -10.16,0.414 -15.34,0.414 -4.35,0 -8.71,-0.414 -13.17,-0.414 -1.34,0 -3,0.101 -3,1.863 0,2.492 3,2.387 4.77,2.594 4.76,0.516 4.66,3.316 4.56,7.254 l -0.73,38.762 -18.34,-44.461 c -0.83,-2.489 -1.14,-5.286 -4.36,-5.286 -2.17,0 -2.59,1.45 -3.31,3.317 l -19.28,45.707 -1.35,-35.969 c -0.21,-4.765 -0.21,-9.324 5.7,-9.324 1.56,0 4.98,0.207 4.98,-2.281 0,-1.762 -1.77,-2.176 -3.11,-2.176 -3.11,0 -6.22,0.207 -9.33,0.207 -3.21,0 -6.32,-0.207 -9.43,-0.207 -1.35,0 -2.59,0.207 -2.59,1.863 0,2.074 2.8,2.18 4.35,2.387 4.56,0.621 4.15,4.039 4.35,7.879 l 2.08,41.664 c 0.2,4.664 0.83,6.84 -4.46,7.152 -1.56,0.106 -4.46,-0.211 -4.46,1.864 0,2.175 2.39,2.175 4.04,2.175 h 19.28 c 2.18,0 2.08,-0.929 2.91,-2.797 l 16.06,-37.828 15.55,37"
         style="fill:#760135;fill-opacity:1;fill-rule:nonzero;stroke:none"
         id="path208" />
      <path
         d="m 1114.09,360.617 30.42,-73.457 c 3.08,8.785 11.38,16.215 20.04,19.805 3.73,1.543 8.74,2.723 12.75,2.25 2.41,-0.121 3.57,-0.766 4.44,-2.871 0.96,-2.293 2.75,-9.071 -0.41,-10.379 -3.06,-1.27 -5.85,1.39 -7.97,2.984 -2.91,2.156 -5.82,5.106 -9.74,3.481 -2.87,-1.192 -5.03,-4.66 -5.92,-7.387 -1.47,-4.313 -0.9,-9.461 0.8,-13.582 4.05,-9.766 14.89,-16.719 25.62,-12.273 6.99,2.894 7.63,7.308 9.45,8.066 0.67,0.273 1.42,-0.199 1.62,-0.676 0.91,-2.203 -1.15,-5.078 -2.24,-6.762 -0.75,-1.019 -1.57,-1.976 -2.45,-2.875 l 74.87,31.008 -44.31,106.977 -106.97,-44.309"
         style="fill:#75838b;fill-opacity:1;fill-rule:nonzero;stroke:none"
         id="path210" />
      <path
         d="m 1052.47,155.996 h 16.34 c -0.62,-8.269 4.13,-13.859 12.51,-13.859 6.41,0 14.9,1.965 14.9,9.929 0,8.789 -10.66,9.411 -17.07,11.067 -10.45,2.586 -24.71,7.344 -24.71,20.578 0,17.062 15.71,24.605 31.02,24.605 12.39,0 22.42,-5.753 25.06,-16.808 v 56.996 H 995 V 132.98 h 70.98 c -8.6,3.36 -13.86,10.473 -13.51,23.016"
         style="fill:#1f1d40;fill-opacity:1;fill-rule:nonzero;stroke:none"
         id="path212" />
      <path
         d="m 1110.52,185.465 h -14.72 c -0.62,7.547 -4.66,11.273 -12.41,11.273 -5.89,0 -11.89,-3.105 -11.89,-9.617 0,-8.066 7.24,-9 13.65,-10.547 8.55,-2.179 20.15,-4.535 25.37,-11.941 v 20.832"
         style="fill:#1f1d40;fill-opacity:1;fill-rule:nonzero;stroke:none"
         id="path214" />
      <path
         d="m 1131.84,248.766 v -58.368 c 4.63,10.95 13.64,18.094 27.64,18.094 17.2,0 30.67,-7.051 31.4,-25.808 h -17.1 c 0.1,7.879 -4.67,14.199 -14.3,14.199 -11.41,0 -14.31,-16.895 -14.31,-27.363 0,-10.465 2.9,-27.364 14.31,-27.364 9.63,0 14.4,6.324 14.3,14.199 h 17.1 c -0.49,-12.625 -6.75,-19.941 -16.04,-23.375 h 72.78 v 115.786 h -115.78"
         style="fill:#fab93d;fill-opacity:1;fill-rule:nonzero;stroke:none"
         id="path216" />
    </g>
  </g>
</svg>
