<?xml version="1.0" encoding="UTF-8" standalone="no"?>
<svg
   xmlns:dc="http://purl.org/dc/elements/1.1/"
   xmlns:cc="http://creativecommons.org/ns#"
   xmlns:rdf="http://www.w3.org/1999/02/22-rdf-syntax-ns#"
   xmlns:svg="http://www.w3.org/2000/svg"
   xmlns="http://www.w3.org/2000/svg"
   viewBox="0 0 804.63879 396.24081"
   height="396.24081"
   width="804.63879"
   xml:space="preserve"
   id="svg2"
   version="1.1"><metadata
     id="metadata8"><rdf:RDF><cc:Work
         rdf:about=""><dc:format>image/svg+xml</dc:format><dc:type
           rdf:resource="http://purl.org/dc/dcmitype/StillImage" /></cc:Work></rdf:RDF></metadata><defs
     id="defs6"><clipPath
       id="clipPath14"
       clipPathUnits="userSpaceOnUse"><path
         id="path12"
         d="M 0,0 H 960 V 768 H 0 Z" /></clipPath><clipPath
       id="clipPath24"
       clipPathUnits="userSpaceOnUse"><path
         id="path22"
         d="M 0,0 H 960 V 768 H 0 Z" /></clipPath><clipPath
       id="clipPath78"
       clipPathUnits="userSpaceOnUse"><path
         id="path76"
         d="m 255.195,349.398 c 0,-19.695 12.524,-39.945 34.434,-55.773 21.91,15.828 34.433,36.078 34.433,55.773 0,18.989 -15.449,34.434 -34.433,34.434 -18.988,0 -34.434,-15.445 -34.434,-34.434" /></clipPath><radialGradient
       id="radialGradient92"
       spreadMethod="pad"
       gradientTransform="matrix(0,-12.18585,-12.18585,0,295.9394,393.1954)"
       gradientUnits="userSpaceOnUse"
       r="1"
       cy="0"
       cx="0"
       fy="0"
       fx="0"><stop
         id="stop88"
         offset="0"
         style="stop-opacity:1;stop-color:#ae132b" /><stop
         id="stop90"
         offset="1"
         style="stop-opacity:1;stop-color:#ae132b" /></radialGradient><clipPath
       id="clipPath102"
       clipPathUnits="userSpaceOnUse"><path
         id="path100"
         d="m 289.629,305.848 c -19.449,14.05 -31.481,31.59 -33.945,49.125 -0.297,-1.817 -0.489,-3.672 -0.489,-5.575 0,-19.695 12.524,-39.945 34.434,-55.773 21.91,15.828 34.433,36.078 34.433,55.773 0,1.903 -0.195,3.758 -0.492,5.575 -2.461,-17.535 -14.492,-35.075 -33.941,-49.125" /></clipPath><linearGradient
       id="linearGradient116"
       spreadMethod="pad"
       gradientTransform="matrix(-2.35025e-6,-53.96837,-53.96837,2.35025e-6,289.6264,351.4145)"
       gradientUnits="userSpaceOnUse"
       y2="0"
       x2="1"
       y1="0"
       x1="0"><stop
         id="stop112"
         offset="0"
         style="stop-opacity:1;stop-color:#ae132b" /><stop
         id="stop114"
         offset="1"
         style="stop-opacity:1;stop-color:#8e1023" /></linearGradient><clipPath
       id="clipPath126"
       clipPathUnits="userSpaceOnUse"><path
         id="path124"
         d="M 0,0 H 960 V 768 H 0 Z" /></clipPath></defs><g
     clip-path="url(#clipPath14)"
     transform="matrix(1.3333333,0,0,-1.3333333,-218.85747,708.2292)"
     id="g10"><g
       id="g16" /><g
       id="g18"><g
         clip-path="url(#clipPath24)"
         id="g20"><path
           id="path26"
           style="fill:#000000;fill-opacity:1;fill-rule:nonzero;stroke:none"
           d="m 409.844,421.781 c -8.172,35.938 -45.973,66.528 -86.063,69.641 l -4.176,0.324 1.762,-3.797 c 3.36,-7.25 3.871,-13.359 1.516,-18.16 -3.039,-6.191 -10.36,-9.34 -16.481,-10.926 -2.968,3.895 -5.097,9.114 -5.757,14.016 l 16.753,-3.758 -8.445,22.309 h -39.015 l 3.101,-3.961 c 7.363,-9.403 2.516,-20.356 -4.242,-27.36 -4.75,1.735 -10.332,4.844 -12.684,10.235 -2.058,4.707 -1.461,10.629 1.778,17.605 l 1.757,3.797 -4.171,-0.324 c -40.094,-3.113 -77.895,-33.703 -86.063,-69.641 -5.496,-24.183 0.16,-41.699 5.871,-52.133 6.36,-11.621 16.297,-20.773 26.75,-24.746 13.203,-43.043 42.387,-85.476 86.555,-106.097 l 1.039,-0.481 1.035,0.481 c 44.168,20.621 73.356,63.054 86.559,106.097 10.453,3.973 20.386,13.125 26.746,24.746 5.711,10.434 11.367,27.95 5.875,52.133" /><path
           id="path28"
           style="fill:#000000;fill-opacity:1;fill-rule:nonzero;stroke:none"
           d="m 307.738,496.645 3.93,29.132 -13.98,-11.343 -8.063,14.609 -8.059,-14.609 -13.976,11.343 3.93,-29.132 z" /><path
           id="path30"
           style="fill:#ec5168;fill-opacity:1;fill-rule:nonzero;stroke:none"
           d="m 257.984,423.672 c -5.5,-1.024 -10.808,-2.274 -15.894,-3.699 1.808,8.418 4.133,11.843 7.207,16.363 0.609,0.898 1.254,1.859 1.91,2.875 3.547,-0.813 7.414,-1.348 11.59,-1.566 -1.93,-3.309 -4.313,-8.418 -4.813,-13.973" /><path
           id="path32"
           style="fill:#ec5168;fill-opacity:1;fill-rule:nonzero;stroke:none"
           d="m 245.246,439.09 c -3.558,-5.235 -6.398,-9.434 -8.457,-20.695 -5.851,-1.84 -11.363,-3.887 -16.461,-6.067 2.629,12.988 9.094,21.43 17.781,32.063 2.379,-1.5 5.118,-2.766 8.153,-3.789 -0.344,-0.516 -0.688,-1.028 -1.016,-1.512" /><path
           id="path34"
           style="fill:#ec5168;fill-opacity:1;fill-rule:nonzero;stroke:none"
           d="m 214.938,409.906 c -6.071,-2.863 -11.458,-5.859 -15.997,-8.816 1.161,22.64 10.778,40.656 29.301,54.867 1.235,-3.262 3.258,-6.141 5.961,-8.598 -9.476,-11.617 -16.906,-21.402 -19.265,-37.453" /><path
           id="path36"
           style="fill:#ec5168;fill-opacity:1;fill-rule:nonzero;stroke:none"
           d="m 316.461,437.645 c 4.176,0.218 8.039,0.753 11.586,1.566 0.66,-1.016 1.305,-1.977 1.914,-2.875 3.07,-4.524 5.394,-7.945 7.207,-16.363 -5.086,1.425 -10.395,2.675 -15.898,3.699 -0.5,5.555 -2.883,10.66 -4.809,13.973" /><path
           id="path38"
           style="fill:#ec5168;fill-opacity:1;fill-rule:nonzero;stroke:none"
           d="m 364.316,409.906 c -2.359,16.051 -9.785,25.836 -19.269,37.453 2.707,2.457 4.73,5.336 5.969,8.598 18.519,-14.211 28.14,-32.227 29.3,-54.867 -4.539,2.957 -9.929,5.953 -16,8.816" /><path
           id="path40"
           style="fill:#ec5168;fill-opacity:1;fill-rule:nonzero;stroke:none"
           d="m 341.145,444.391 c 8.687,-10.637 15.152,-19.075 17.781,-32.063 -5.098,2.18 -10.606,4.227 -16.457,6.063 -2.063,11.265 -4.899,15.464 -8.457,20.699 -0.332,0.484 -0.672,0.996 -1.02,1.512 3.035,1.023 5.774,2.285 8.153,3.789" /><path
           id="path42"
           style="fill:#f18394;fill-opacity:1;fill-rule:nonzero;stroke:none"
           d="m 320.012,429.738 c 0.605,-1.91 1.07,-3.953 1.258,-6.066 5.503,-1.024 10.812,-2.274 15.894,-3.699 -1.027,4.797 -2.23,7.949 -3.641,10.629 -4.445,-0.672 -8.964,-0.95 -13.511,-0.864" /><path
           id="path44"
           style="fill:#f18394;fill-opacity:1;fill-rule:nonzero;stroke:none"
           d="m 353.578,436.266 c 5.262,-7.594 9.152,-15.559 10.738,-26.36 6.071,-2.859 11.461,-5.859 16,-8.816 -0.812,15.844 -5.785,29.418 -15.035,41.012 -3.765,-2.235 -7.683,-4.164 -11.703,-5.836" /><path
           id="path46"
           style="fill:#f18394;fill-opacity:1;fill-rule:nonzero;stroke:none"
           d="m 338.555,431.52 c 1.515,-3.2 2.82,-7.172 3.914,-13.125 5.851,-1.84 11.359,-3.883 16.457,-6.067 -1.774,8.75 -5.309,15.434 -10.071,22.117 -3.375,-1.179 -6.808,-2.172 -10.3,-2.925" /><path
           id="path48"
           style="fill:#f18394;fill-opacity:1;fill-rule:nonzero;stroke:none"
           d="m 259.242,429.738 c -0.605,-1.91 -1.07,-3.953 -1.258,-6.066 -5.5,-1.024 -10.812,-2.274 -15.894,-3.699 1.027,4.797 2.234,7.949 3.64,10.629 4.45,-0.672 8.965,-0.95 13.512,-0.864" /><path
           id="path50"
           style="fill:#f18394;fill-opacity:1;fill-rule:nonzero;stroke:none"
           d="m 225.676,436.266 c -5.262,-7.594 -9.149,-15.559 -10.738,-26.36 -6.071,-2.859 -11.458,-5.859 -16,-8.816 0.812,15.844 5.785,29.418 15.035,41.012 3.761,-2.235 7.683,-4.164 11.703,-5.836" /><path
           id="path52"
           style="fill:#f18394;fill-opacity:1;fill-rule:nonzero;stroke:none"
           d="m 240.703,431.52 c -1.515,-3.2 -2.824,-7.172 -3.914,-13.125 -5.855,-1.84 -11.363,-3.883 -16.461,-6.067 1.774,8.75 5.313,15.434 10.07,22.117 3.375,-1.179 6.813,-2.172 10.305,-2.925" /><path
           id="path54"
           style="fill:#f18394;fill-opacity:1;fill-rule:nonzero;stroke:none"
           d="m 379,351.055 c 4.199,15.484 6.34,30.918 6.34,45.312 v 1.25 l -0.035,0.024 c -0.34,27.101 -11.539,48.179 -34.254,64.379 l -3.106,2.218 -0.722,-3.75 c -2.176,-11.304 -15.344,-18.054 -35.231,-18.054 h -5.023 l 3.093,-3.957 c 0.055,-0.075 5.036,-6.543 6.176,-13.95 -8.515,1.332 -17.414,2.129 -26.613,2.129 -9.195,0 -18.094,-0.797 -26.605,-2.129 1.144,7.383 6.121,13.875 6.179,13.953 l 3.071,3.954 h -5.008 c -19.883,0 -33.055,6.75 -35.231,18.054 l -0.719,3.75 -3.109,-2.218 c -22.711,-16.2 -33.91,-37.278 -34.254,-64.379 l -0.031,-0.024 v -1.25 c 0,-14.426 2.148,-29.898 6.367,-45.414 -26.07,12.34 -31.164,47.434 -26.094,69.742 7.45,32.77 41.106,60.844 77.661,65.434 -2.372,-6.703 -2.45,-12.66 -0.227,-17.746 2.625,-6.016 8.523,-10.653 17.063,-13.418 l 1.386,-0.449 1.055,1.004 c 8.41,8.003 13.648,20.203 8.281,31.007 h 26.156 l 4.032,-10.636 -14.071,3.156 v -3.063 c 0,-7.375 3.18,-15.804 8.102,-21.472 l 0.957,-1.11 1.434,0.328 c 10.632,2.418 17.984,7.227 21.261,13.903 2.578,5.246 2.614,11.453 0.121,18.496 36.555,-4.59 70.215,-32.664 77.66,-65.434 8.161,-35.886 -9.214,-60.984 -26.062,-69.64" /><path
           id="path56"
           style="fill:#f7bac3;fill-opacity:1;fill-rule:nonzero;stroke:none"
           d="m 304.586,453.402 -0.957,1.11 c -4.18,4.812 -7.074,11.613 -7.867,18.07 l -0.235,0.051 v -3.059 c 0,-7.379 3.18,-15.808 8.102,-21.472 l 0.957,-1.11 1.434,0.324 c 10.632,2.418 17.984,7.227 21.261,13.903 1.75,3.566 2.301,7.59 1.711,12.008 -0.297,-1.965 -0.847,-3.84 -1.711,-5.598 -3.277,-6.672 -10.629,-11.481 -21.261,-13.899 z" /><path
           id="path58"
           style="fill:#f7bac3;fill-opacity:1;fill-rule:nonzero;stroke:none"
           d="m 405.062,414.281 c 1.165,-5.117 1.793,-10.008 1.997,-14.672 0.289,6.52 -0.286,13.563 -1.997,21.086 -7.445,32.77 -41.105,60.844 -77.66,65.434 0.821,-2.309 1.336,-4.52 1.61,-6.649 35.929,-5.199 68.711,-32.91 76.05,-65.199" /><path
           id="path60"
           style="fill:#f7bac3;fill-opacity:1;fill-rule:nonzero;stroke:none"
           d="m 174.191,414.281 c 7.34,32.289 40.118,60 76.047,65.199 0.274,2.125 0.797,4.34 1.617,6.649 -36.562,-4.586 -70.214,-32.664 -77.664,-65.434 -1.332,-5.867 -1.957,-12.617 -1.687,-19.605 0.187,4.676 0.769,9.144 1.687,13.191" /><path
           id="path62"
           style="fill:#f7bac3;fill-opacity:1;fill-rule:nonzero;stroke:none"
           d="m 309.594,475.895 -4.028,10.632 h -26.16 c 0.68,-1.359 1.164,-2.742 1.516,-4.136 h 21.789 z" /><path
           id="path64"
           style="fill:#f7bac3;fill-opacity:1;fill-rule:nonzero;stroke:none"
           d="m 250.266,473.246 c -0.559,-4.117 -0.118,-7.894 1.359,-11.277 2.625,-6.016 8.527,-10.653 17.063,-13.418 l 1.386,-0.446 1.059,1 c 6.844,6.516 11.586,15.813 10.215,24.875 -0.989,-6.878 -4.989,-13.48 -10.215,-18.46 l -1.059,-1.004 -1.386,0.449 c -8.536,2.765 -14.438,7.402 -17.063,13.418 -0.672,1.539 -1.109,3.168 -1.359,4.863" /><path
           id="path66"
           style="fill:#f5a8b3;fill-opacity:1;fill-rule:nonzero;stroke:none"
           d="m 290.758,251.262 -1.129,-0.586 -1.129,0.586 c -54.434,28.254 -81.352,91.933 -83.32,139.144 l -0.063,1.43 1.211,0.754 c 8.652,5.379 40.219,22.93 83.301,22.93 43.082,0 74.648,-17.551 83.293,-22.93 l 1.215,-0.754 -0.059,-1.43 c -1.973,-47.211 -28.887,-110.89 -83.32,-139.144 m -1.129,170.496 c -39.149,0 -73.09,-14.192 -90.805,-26.649 0.473,-54.281 31.637,-123.129 90.805,-151.375 59.164,28.246 90.332,97.094 90.801,151.375 -17.715,12.457 -51.657,26.649 -90.801,26.649" /><path
           id="path68"
           style="fill:#770d1d;fill-opacity:1;fill-rule:nonzero;stroke:none"
           d="m 291.055,275.113 v -18.379 c 9.285,5.211 17.699,11.496 25.265,18.575 l -6.211,14.445 c -5.629,-5.262 -12.015,-10.172 -19.054,-14.641 m 48.023,73.442 c 0,-0.043 -0.008,-0.086 -0.008,-0.137 h 21.68 c 3.93,12.723 6.297,25.32 7.148,37.027 l -32.722,-17.437 c 2.508,-5.992 3.902,-12.559 3.902,-19.453 m -25.223,-55.11 6.227,-14.48 c 8.863,8.93 16.469,18.941 22.844,29.519 l -12.258,7.805 c -4.176,-8 -9.824,-15.695 -16.813,-22.844 m 18.961,27.285 12.586,-8.011 c 5.641,9.992 10.231,20.394 13.766,30.801 h -20.301 c -0.629,-7.676 -2.715,-15.332 -6.051,-22.79 m -4.843,84 c -10.782,2.778 -23.227,4.766 -36.918,4.989 v -10.754 c 9.742,-0.469 18.761,-3.719 26.297,-8.957 z m 5.089,-32.296 32.547,17.343 c -6.394,3.618 -17.675,9.207 -32.597,13.567 l -11.778,-16.328 c 4.793,-4.071 8.821,-9.012 11.828,-14.582 m -72.167,-97.125 c 7.566,-7.079 15.984,-13.364 25.265,-18.575 v 18.379 c -7.039,4.469 -13.422,9.379 -19.051,14.641 z m 25.265,123.656 v 10.754 c -13.691,-0.223 -26.133,-2.211 -36.918,-4.989 l 10.625,-14.722 c 7.531,5.238 16.551,8.488 26.293,8.957 M 238.348,343.52 h -20.297 c 3.535,-10.407 8.125,-20.809 13.765,-30.801 l 12.586,8.011 c -3.34,7.458 -5.425,15.114 -6.054,22.79 m 17.632,43.496 -11.773,16.328 c -14.926,-4.36 -26.203,-9.949 -32.598,-13.567 l 32.547,-17.343 c 3.004,5.57 7.035,10.511 11.824,14.582 m -9.433,-70.727 -12.258,-7.805 c 6.375,-10.578 13.984,-20.589 22.844,-29.519 l 6.226,14.48 c -6.984,7.149 -12.636,14.844 -16.812,22.844 m -8.402,32.129 h -21.68 c -3.926,12.723 -6.293,25.32 -7.149,37.027 l 32.723,-17.437 c -2.508,-5.992 -3.902,-12.559 -3.902,-19.453 0,-0.043 0.008,-0.086 0.008,-0.137" /><path
           id="path70"
           style="fill:#f5a8b3;fill-opacity:1;fill-rule:nonzero;stroke:none"
           d="m 291.035,288.613 -1.406,-0.988 -1.41,0.988 c -24.102,16.899 -37.926,39.055 -37.926,60.785 0,21.692 17.645,39.336 39.336,39.336 21.687,0 39.332,-17.644 39.332,-39.336 0,-21.73 -13.824,-43.886 -37.926,-60.785 m 44.164,60.785 c 0,25.129 -20.441,45.571 -45.57,45.571 -25.129,0 -45.57,-20.442 -45.57,-45.571 0,-25.25 17.003,-51.043 45.57,-69.222 28.566,18.179 45.57,43.972 45.57,69.222" /></g></g><g
       id="g72"><g
         clip-path="url(#clipPath78)"
         id="g74"><g
           id="g80"><g
             id="g86"><path
               id="path94"
               style="fill:url(#radialGradient92);stroke:none"
               d="M 0,0 H 960 V 768 H 0 Z" /></g></g></g></g><g
       id="g96"><g
         clip-path="url(#clipPath102)"
         id="g98"><g
           id="g104"><g
             id="g110"><path
               id="path118"
               style="fill:url(#linearGradient116);stroke:none"
               d="M 0,0 H 960 V 768 H 0 Z" /></g></g></g></g><g
       id="g120"><g
         clip-path="url(#clipPath126)"
         id="g122"><path
           id="path128"
           style="fill:#f18394;fill-opacity:1;fill-rule:nonzero;stroke:none"
           d="m 283.211,507.227 6.418,12.582 6.418,-12.582 9.035,7.808 -1.27,-13.492 h -28.371 l -1.265,13.492 z" /><path
           id="path130"
           style="fill:#b3142c;fill-opacity:1;fill-rule:nonzero;stroke:none"
           d="m 238.922,311.629 -3.613,-2.301 c 6.375,-10.578 13.984,-20.594 22.843,-29.519 l 2.543,5.91 c -8.32,7.797 -15.574,16.57 -21.773,25.91" /><path
           id="path132"
           style="fill:#b3142c;fill-opacity:1;fill-rule:nonzero;stroke:none"
           d="m 264.539,282.258 -2.625,-6.106 c 7.57,-7.078 15.984,-13.363 25.262,-18.574 v 9.027 c -8.231,4.415 -15.77,9.7 -22.637,15.653" /><path
           id="path134"
           style="fill:#b3142c;fill-opacity:1;fill-rule:nonzero;stroke:none"
           d="m 222.09,344.367 h -3.02 c 3.535,-10.406 8.121,-20.812 13.766,-30.805 l 3.437,2.192 c -5.703,9.195 -10.421,18.867 -14.183,28.613" /><path
           id="path136"
           style="fill:#b3142c;fill-opacity:1;fill-rule:nonzero;stroke:none"
           d="m 211.805,385.508 -1.469,0.781 c 0.855,-11.707 3.219,-24.305 7.148,-37.023 h 2.797 c -4.34,12.316 -7.152,24.648 -8.476,36.242" /><path
           id="path138"
           style="fill:#b3142c;fill-opacity:1;fill-rule:nonzero;stroke:none"
           d="m 292.074,266.602 v -9.024 c 9.285,5.211 17.699,11.496 25.266,18.574 l -2.625,6.102 c -6.863,-5.949 -14.406,-11.234 -22.641,-15.652" /><path
           id="path140"
           style="fill:#b3142c;fill-opacity:1;fill-rule:nonzero;stroke:none"
           d="m 367.449,385.508 c -1.32,-11.594 -4.133,-23.926 -8.472,-36.242 h 2.796 c 3.926,12.718 6.293,25.316 7.145,37.023 z" /><path
           id="path142"
           style="fill:#b3142c;fill-opacity:1;fill-rule:nonzero;stroke:none"
           d="m 342.98,315.754 3.438,-2.192 c 5.644,9.993 10.234,20.399 13.77,30.805 h -3.02 c -3.766,-9.746 -8.48,-19.418 -14.188,-28.613" /><path
           id="path144"
           style="fill:#b3142c;fill-opacity:1;fill-rule:nonzero;stroke:none"
           d="m 318.562,285.719 2.54,-5.91 c 8.863,8.925 16.468,18.941 22.847,29.519 l -3.617,2.301 c -6.199,-9.336 -13.453,-18.113 -21.77,-25.91" /><g
           transform="matrix(1,0,0,-1,0,768)"
           id="g146"><path
             id="path148"
             style="fill:none;stroke:#000000;stroke-width:9.40354824;stroke-linecap:butt;stroke-linejoin:miter;stroke-miterlimit:4;stroke-dasharray:none;stroke-opacity:1"
             d="m 480.789,377.066 c -3.332,0 -6.324,-0.789 -8.977,-2.363 -2.648,-1.586 -4.734,-3.762 -6.25,-6.527 -1.519,-2.766 -2.277,-5.879 -2.277,-9.336 v -4.106 c 0,-0.242 0.113,-0.359 0.344,-0.359 h 10.101 c 0.243,0 0.36,0.148 0.36,0.445 v 4.02 c 0,2.211 0.625,3.996 1.875,5.359 1.246,1.375 2.855,2.063 4.824,2.063 1.789,0 3.336,-0.746 4.641,-2.235 1.316,-1.488 1.976,-3.218 1.976,-5.187 v -44.395 c 0,-0.238 0.114,-0.359 0.344,-0.359 h 10.016 c 0.238,0 0.359,0.148 0.359,0.449 l 0.086,44.305 c 0,3.277 -0.793,6.297 -2.379,9.062 -1.574,2.778 -3.672,4.996 -6.297,6.657 -2.609,1.671 -5.527,2.507 -8.746,2.507 z m 55.836,-0.894 h -10.016 c -0.297,0 -0.445,-0.149 -0.445,-0.445 l 0.188,-61.368 c 0,-0.238 0.121,-0.359 0.359,-0.359 h 17.148 c 5.473,0 9.805,1.668 12.996,5 3.188,3.332 4.782,7.859 4.782,13.574 0,4.235 -0.836,7.899 -2.504,10.992 -1.664,3.094 -3.836,5.477 -6.516,7.149 -2.679,1.672 -5.597,2.504 -8.758,2.504 h -6.789 v 22.508 c 0,0.296 -0.148,0.445 -0.445,0.445 z m 0.445,-51.453 v 17.679 h 6.789 c 1.899,0 3.551,-0.906 4.953,-2.722 1.403,-1.817 2.106,-4.184 2.106,-7.102 0,-2.316 -0.625,-4.219 -1.875,-5.707 -1.258,-1.488 -2.984,-2.234 -5.184,-2.234 z m 61.641,51.453 h -10.102 c -0.297,0 -0.445,-0.149 -0.445,-0.445 l 0.086,-61.368 c 0,-0.238 0.121,-0.359 0.359,-0.359 h 10.016 c 0.23,0 0.348,0.121 0.348,0.359 l 0.097,61.368 c 0,0.296 -0.117,0.445 -0.359,0.445 z m 39.84,0 h -10 c -0.297,0 -0.446,-0.149 -0.446,-0.445 l 0.172,-61.368 c 0,-0.238 0.121,-0.359 0.36,-0.359 h 17.148 c 5.485,0 9.817,1.668 12.996,5 3.188,3.332 4.785,7.859 4.785,13.574 0,4.235 -0.836,7.899 -2.507,10.992 -1.664,3.094 -3.832,5.477 -6.512,7.149 -2.684,1.672 -5.602,2.504 -8.762,2.504 h -6.789 v 22.508 c 0,0.296 -0.148,0.445 -0.445,0.445 z m 0.445,-51.453 v 17.679 h 6.789 c 1.91,0 3.563,-0.906 4.957,-2.722 1.403,-1.817 2.102,-4.184 2.102,-7.102 0,-2.316 -0.625,-4.219 -1.871,-5.707 -1.25,-1.488 -2.981,-2.234 -5.188,-2.234 z m 81.024,51.453 h -28.848 c -0.242,0 -0.36,-0.149 -0.36,-0.445 l 0.086,-61.368 c 0,-0.238 0.122,-0.359 0.36,-0.359 h 28.672 c 0.242,0 0.363,0.148 0.363,0.445 v 10 c 0,0.243 -0.121,0.364 -0.363,0.364 h -18.313 v 13.929 h 18.313 c 0.242,0 0.363,0.121 0.363,0.364 l 0.086,10.097 c 0,0.231 -0.121,0.348 -0.359,0.348 h -18.403 v 15.633 h 18.403 c 0.238,0 0.359,0.148 0.359,0.445 v 10.187 c 0,0.243 -0.121,0.36 -0.359,0.36 z" /></g><path
           id="path150"
           style="fill:#f18394;fill-opacity:1;fill-rule:nonzero;stroke:none"
           d="m 480.789,390.934 c -3.332,0 -6.324,0.789 -8.977,2.363 -2.648,1.586 -4.734,3.762 -6.25,6.527 -1.519,2.766 -2.277,5.879 -2.277,9.336 v 4.106 c 0,0.242 0.113,0.359 0.344,0.359 h 10.101 c 0.243,0 0.36,-0.148 0.36,-0.445 v -4.02 c 0,-2.211 0.625,-3.996 1.875,-5.359 1.246,-1.375 2.855,-2.063 4.824,-2.063 1.789,0 3.336,0.746 4.641,2.235 1.316,1.488 1.976,3.218 1.976,5.187 v 44.395 c 0,0.238 0.114,0.359 0.344,0.359 h 10.016 c 0.238,0 0.359,-0.148 0.359,-0.449 l 0.086,-44.305 c 0,-3.277 -0.793,-6.297 -2.379,-9.062 -1.574,-2.778 -3.672,-4.996 -6.297,-6.657 -2.609,-1.671 -5.527,-2.507 -8.746,-2.507 z m 55.836,0.894 h -10.016 c -0.297,0 -0.445,0.149 -0.445,0.445 l 0.188,61.368 c 0,0.238 0.121,0.359 0.359,0.359 h 17.148 c 5.473,0 9.805,-1.668 12.996,-5 3.188,-3.332 4.782,-7.859 4.782,-13.574 0,-4.235 -0.836,-7.899 -2.504,-10.992 -1.664,-3.094 -3.836,-5.477 -6.516,-7.149 -2.679,-1.672 -5.597,-2.504 -8.758,-2.504 h -6.789 v -22.508 c 0,-0.296 -0.148,-0.445 -0.445,-0.445 z m 0.445,51.453 v -17.679 h 6.789 c 1.899,0 3.551,0.906 4.953,2.722 1.403,1.817 2.106,4.184 2.106,7.102 0,2.316 -0.625,4.219 -1.875,5.707 -1.258,1.488 -2.984,2.234 -5.184,2.234 z m 61.641,-51.453 h -10.102 c -0.297,0 -0.445,0.149 -0.445,0.445 l 0.086,61.368 c 0,0.238 0.121,0.359 0.359,0.359 h 10.016 c 0.23,0 0.348,-0.121 0.348,-0.359 l 0.097,-61.368 c 0,-0.296 -0.117,-0.445 -0.359,-0.445 z m 39.84,0 h -10 c -0.297,0 -0.446,0.149 -0.446,0.445 l 0.172,61.368 c 0,0.238 0.121,0.359 0.36,0.359 h 17.148 c 5.485,0 9.817,-1.668 12.996,-5 3.188,-3.332 4.785,-7.859 4.785,-13.574 0,-4.235 -0.836,-7.899 -2.507,-10.992 -1.664,-3.094 -3.832,-5.477 -6.512,-7.149 -2.684,-1.672 -5.602,-2.504 -8.762,-2.504 h -6.789 v -22.508 c 0,-0.296 -0.148,-0.445 -0.445,-0.445 z m 0.445,51.453 v -17.679 h 6.789 c 1.91,0 3.563,0.906 4.957,2.722 1.403,1.817 2.102,4.184 2.102,7.102 0,2.316 -0.625,4.219 -1.871,5.707 -1.25,1.488 -2.981,2.234 -5.188,2.234 z m 81.024,-51.453 h -28.848 c -0.242,0 -0.36,0.149 -0.36,0.445 l 0.086,61.368 c 0,0.238 0.122,0.359 0.36,0.359 h 28.672 c 0.242,0 0.363,-0.148 0.363,-0.445 v -10 c 0,-0.243 -0.121,-0.364 -0.363,-0.364 h -18.313 v -13.929 h 18.313 c 0.242,0 0.363,-0.121 0.363,-0.364 l 0.086,-10.097 c 0,-0.231 -0.121,-0.348 -0.359,-0.348 H 701.617 V 402.82 h 18.403 c 0.238,0 0.359,-0.148 0.359,-0.445 v -10.187 c 0,-0.243 -0.121,-0.36 -0.359,-0.36 z" /><path
           id="path152"
           style="fill:#ffffff;fill-opacity:1;fill-rule:nonzero;stroke:none"
           d="m 288.754,320.309 c -2.418,0 -4.59,0.57 -6.512,1.714 -1.93,1.141 -3.441,2.723 -4.539,4.739 -1.101,2.008 -1.656,4.265 -1.656,6.773 v 2.985 c 0,0.171 0.086,0.257 0.258,0.257 h 7.336 c 0.164,0 0.246,-0.109 0.246,-0.332 v -2.91 c 0,-1.605 0.457,-2.902 1.367,-3.89 0.902,-0.989 2.07,-1.485 3.5,-1.485 1.297,0 2.422,0.539 3.375,1.613 0.949,1.086 1.426,2.34 1.426,3.762 v 32.219 c 0,0.172 0.086,0.258 0.257,0.258 h 7.262 c 0.172,0 0.262,-0.106 0.262,-0.317 l 0.055,-32.16 c 0,-2.383 -0.571,-4.578 -1.715,-6.586 -1.141,-2.008 -2.664,-3.613 -4.567,-4.824 -1.902,-1.211 -4.019,-1.816 -6.355,-1.816 z" /><path
           id="path154"
           style="fill:#000000;fill-opacity:1;fill-rule:nonzero;stroke:none"
           d="m 443.348,311.516 h -17.852 v 39.336 h 17.231 v -3.645 H 429.73 v -13.922 h 10.606 v -3.629 H 429.73 v -14.511 h 13.618 z m 22.203,7.562 v 5.145 h 4.222 v -5.375 c 0,-1.457 0.508,-2.594 1.528,-3.399 1.008,-0.808 2.5,-1.211 4.48,-1.211 1.969,0 3.457,0.403 4.469,1.211 1.016,0.805 1.527,1.903 1.527,3.285 0,1.391 -0.156,2.5 -0.465,3.328 -0.304,0.825 -0.921,1.704 -1.843,2.637 l -10.66,10.43 c -1.25,1.242 -2.106,2.457 -2.567,3.648 -0.461,1.192 -0.691,2.692 -0.691,4.508 0,2.699 0.836,4.785 2.508,6.254 1.679,1.481 4.211,2.219 7.593,2.219 6.504,0 9.754,-2.824 9.754,-8.473 v -5.144 h -4.25 v 5.375 c 0,1.461 -0.476,2.593 -1.426,3.402 -0.941,0.805 -2.363,1.211 -4.265,1.211 -1.903,0 -3.324,-0.406 -4.266,-1.211 -0.949,-0.809 -1.426,-1.918 -1.426,-3.328 0,-1.414 0.145,-2.524 0.434,-3.328 0.285,-0.809 0.91,-1.653 1.871,-2.539 L 482.93,327.32 c 1.16,-1.297 1.961,-2.539 2.406,-3.73 0.441,-1.192 0.66,-2.695 0.66,-4.512 0,-5.656 -3.402,-8.484 -10.215,-8.484 -6.82,0 -10.23,2.828 -10.23,8.484 z m 49.293,28.129 h -7.883 v 3.645 h 19.973 v -3.645 h -7.856 v -35.691 h -4.234 z m 38.816,-35.691 h -5.433 v 6.64 h 5.433 z m 73.57,0 h -20.386 v 3.629 l 11.496,16.281 c 0.156,0.203 0.457,0.625 0.91,1.269 0.449,0.653 0.777,1.121 0.977,1.399 0.195,0.277 0.472,0.699 0.835,1.265 0.368,0.571 0.641,1.02 0.825,1.356 0.172,0.336 0.367,0.73 0.59,1.183 0.394,0.805 0.589,1.594 0.589,2.364 v 3.254 c 0,1.461 -0.476,2.593 -1.425,3.402 -0.942,0.805 -2.364,1.211 -4.266,1.211 -1.902,0 -3.324,-0.406 -4.266,-1.211 -0.949,-0.809 -1.425,-1.941 -1.425,-3.402 v -5.375 h -4.223 v 5.144 c 0,5.649 3.254,8.473 9.754,8.473 3.383,0 5.914,-0.738 7.594,-2.219 1.671,-1.469 2.507,-3.555 2.507,-6.254 v -3.023 c 0,-1.375 -0.437,-2.879 -1.308,-4.512 -0.887,-1.641 -2.352,-3.93 -4.395,-6.859 l -9.625,-13.746 h 15.242 z m 24.508,7.562 v 24.207 c 0,2.699 0.856,4.785 2.567,6.254 1.718,1.481 4.281,2.219 7.679,2.219 3.411,0 5.985,-0.738 7.723,-2.219 1.731,-1.469 2.594,-3.555 2.594,-6.254 v -24.207 c 0,-2.699 -0.856,-4.789 -2.567,-6.266 -1.718,-1.48 -4.281,-2.218 -7.691,-2.218 -3.402,0 -5.973,0.738 -7.711,2.218 -1.727,1.477 -2.594,3.567 -2.594,6.266 z m 4.223,24.207 v -24.207 c 0,-3.226 2.019,-4.84 6.051,-4.84 4.047,0 6.066,1.614 6.066,4.84 v 24.207 c 0,3.227 -2.019,4.844 -6.066,4.844 -4.032,0 -6.051,-1.617 -6.051,-4.844 z m 61.656,-31.769 h -20.39 v 3.629 l 11.484,16.281 c 0.164,0.203 0.473,0.625 0.922,1.269 0.453,0.653 0.777,1.121 0.98,1.399 0.192,0.277 0.473,0.699 0.836,1.265 0.363,0.571 0.633,1.02 0.809,1.356 0.18,0.336 0.383,0.73 0.605,1.183 0.391,0.805 0.59,1.594 0.59,2.364 v 3.254 c 0,1.461 -0.476,2.593 -1.426,3.402 -0.941,0.805 -2.363,1.211 -4.265,1.211 -1.903,0 -3.328,-0.406 -4.282,-1.211 -0.941,-0.809 -1.41,-1.941 -1.41,-3.402 v -5.375 h -4.222 v 5.144 c 0,5.649 3.246,8.473 9.738,8.473 3.394,0 5.93,-0.738 7.609,-2.219 1.672,-1.469 2.508,-3.555 2.508,-6.254 v -3.023 c 0,-1.375 -0.437,-2.879 -1.312,-4.512 -0.883,-1.641 -2.348,-3.93 -4.395,-6.859 l -9.637,-13.746 h 15.258 z m 24.625,7.562 v 5.145 h 4.25 v -5.375 c 0,-1.457 0.504,-2.594 1.512,-3.399 1,-0.808 2.488,-1.211 4.469,-1.211 1.976,0 3.468,0.403 4.48,1.211 1.008,0.805 1.512,1.942 1.512,3.399 v 5.664 c 0,1.304 -0.485,2.488 -1.457,3.543 -0.957,1.066 -2.27,1.601 -3.934,1.601 h -6.109 v 3.039 h 5.492 c 1.699,0 3.023,0.524 3.977,1.571 0.961,1.046 1.441,2.238 1.441,3.574 v 5.676 c 0,1.461 -0.48,2.593 -1.441,3.402 -0.954,0.805 -2.375,1.211 -4.266,1.211 -1.891,0 -3.309,-0.406 -4.25,-1.211 -0.953,-0.809 -1.426,-1.941 -1.426,-3.402 v -5.375 h -4.25 v 5.144 c 0,5.649 3.25,8.473 9.754,8.473 3.379,0 5.91,-0.738 7.594,-2.219 1.672,-1.469 2.508,-3.555 2.508,-6.254 v -5.445 c 0,-3.43 -1.43,-5.625 -4.282,-6.586 3.266,-0.883 4.891,-3.129 4.872,-6.742 v -5.434 c 0,-5.656 -3.411,-8.484 -10.231,-8.484 -6.812,0 -10.215,2.828 -10.215,8.484 z" /></g></g></g></svg>